<svg width="961" height="140" viewBox="0 0 961 140" fill="none" xmlns="http://www.w3.org/2000/svg">
<path d="M6.8 37.7C5.66667 37.7 4.71667 37.4833 3.95 37.05C3.18333 36.6167 2.8 35.8833 2.8 34.85C2.8 34.0167 3.08333 33.4333 3.65 33.1C4.25 32.7667 4.96667 32.4833 5.8 32.25C6.93333 31.95 8.35 31.6833 10.05 31.45C10.25 30.35 10.45 29.3333 10.65 28.4C11.3167 25.4 12.1833 22.7667 13.25 20.5C14.3167 18.2 15.7333 16.4167 17.5 15.15C19.3 13.85 21.6167 13.2 24.45 13.2C26.6167 13.2 28.7667 13.65 30.9 14.55C33.0333 15.45 34.9667 16.7167 36.7 18.35C38.4667 19.95 39.8667 21.85 40.9 24.05C41.9667 26.2167 42.5 28.6 42.5 31.2C42.5 33.4333 41.8333 35.6833 40.5 37.95C39.1667 40.1833 37.25 42.3833 34.75 44.55C32.2833 46.6833 29.3167 48.7333 25.85 50.7C22.4167 52.6667 18.6 54.4667 14.4 56.1C13.5667 56.4333 12.7333 56.7167 11.9 56.95C11.0667 57.1833 10.2167 57.3 9.35 57.3C8.35 57.3 7.51667 57.0167 6.85 56.45C6.21667 55.9167 5.9 55.1667 5.9 54.2C5.9 53.4333 6.08333 52.75 6.45 52.15C6.85 51.55 7.41667 51.1 8.15 50.8C9.25 50.4 10.2833 50 11.25 49.6C11.0833 49.6333 10.9 49.65 10.7 49.65C9.66667 49.65 8.98333 49.2167 8.65 48.35C8.31667 47.45 8.15 46.4 8.15 45.2C8.15 44.4 8.21667 43.3333 8.35 42C8.51667 40.6333 8.71667 39.2 8.95 37.7C8.25 37.7 7.53333 37.7 6.8 37.7ZM17.8 30.8C19.7 30.7333 21.6167 30.7 23.55 30.7C23.5833 30.7 23.6333 30.7 23.7 30.7C24.9333 30.7 25.9833 30.7833 26.85 30.95C27.75 31.1167 28.2 31.7333 28.2 32.8C28.2 33.6667 27.9 34.2833 27.3 34.65C26.7 35.0167 25.9667 35.35 25.1 35.65C24.1333 35.9833 22.9167 36.3 21.45 36.6C20.0167 36.8667 18.3333 37.1 16.4 37.3C16 39.1333 15.65 40.8 15.35 42.3C15.05 43.7667 14.8667 44.7 14.8 45.1C14.6667 45.9333 14.4333 46.7 14.1 47.4C13.7667 48.0667 13.3333 48.6 12.8 49C16.9 47.3667 20.3833 45.8 23.25 44.3C26.1167 42.8 28.4333 41.3 30.2 39.8C31.9667 38.3 33.25 36.7167 34.05 35.05C34.85 33.35 35.25 31.5 35.25 29.5C35.25 28.4 34.9667 27.3333 34.4 26.3C33.8333 25.2333 33.0667 24.2833 32.1 23.45C31.1333 22.6167 30.0333 21.9667 28.8 21.5C27.6 21 26.35 20.75 25.05 20.75C23.15 20.75 21.6333 21.5 20.5 23C19.4 24.5 18.5167 27.05 17.85 30.65C17.85 30.7167 17.8333 30.7667 17.8 30.8ZM54.427 54.7C52.3603 54.7 50.6936 53.9833 49.427 52.55C48.1603 51.0833 47.527 48.7333 47.527 45.5C47.527 43.4333 47.7603 41.3667 48.227 39.3C48.727 37.2 49.4103 35.2167 50.277 33.35C51.177 31.45 52.2103 29.7667 53.377 28.3C54.577 26.8333 55.8936 25.6833 57.327 24.85C58.7603 23.9833 60.2436 23.55 61.777 23.55C64.377 23.55 66.4103 24.25 67.877 25.65C69.3436 27.05 70.077 28.8333 70.077 31C70.077 32.6667 69.6103 34.1833 68.677 35.55C67.777 36.8833 66.5436 38.0833 64.977 39.15C63.4103 40.2167 61.6603 41.1833 59.727 42.05C57.7936 42.9167 55.8103 43.7 53.777 44.4C53.6103 45.6 53.527 46.6667 53.527 47.6C53.527 48.1667 53.8436 48.45 54.477 48.45C55.977 48.45 57.577 48.2167 59.277 47.75C61.0103 47.25 62.7603 46.6167 64.527 45.85C66.2936 45.05 67.9936 44.2333 69.627 43.4C71.2603 42.5333 72.7436 41.7167 74.077 40.95C75.4436 40.15 76.5603 39.5167 77.427 39.05C78.327 38.55 78.9103 38.3 79.177 38.3C79.9103 38.3 80.4436 38.5167 80.777 38.95C81.1103 39.3833 81.277 39.85 81.277 40.35C81.277 40.5833 80.827 41.1 79.927 41.9C79.0603 42.7 77.8603 43.65 76.327 44.75C74.827 45.8167 73.127 46.9333 71.227 48.1C69.3603 49.2333 67.4103 50.3167 65.377 51.35C63.377 52.35 61.427 53.15 59.527 53.75C57.6603 54.3833 55.9603 54.7 54.427 54.7ZM54.627 39.95C55.9936 39.15 57.3436 38.3167 58.677 37.45C60.0436 36.55 61.177 35.55 62.077 34.45C62.977 33.3167 63.427 32 63.427 30.5C63.427 30.0667 63.3103 29.7833 63.077 29.65C62.8436 29.4833 62.5103 29.4 62.077 29.4C60.9103 29.4 59.8436 29.9167 58.877 30.95C57.9436 31.9833 57.1103 33.3167 56.377 34.95C55.677 36.55 55.0936 38.2167 54.627 39.95ZM56.877 65.35C55.8436 65.35 54.877 65.0333 53.977 64.4C53.1103 63.7667 52.677 62.75 52.677 61.35C52.677 60.25 52.9436 59.35 53.477 58.65C54.0436 57.9833 54.6936 57.4833 55.427 57.15C56.1603 56.85 56.7936 56.7 57.327 56.7C57.8936 56.7 58.527 56.8167 59.227 57.05C59.927 57.2833 60.527 57.7167 61.027 58.35C61.5603 58.9833 61.827 59.9 61.827 61.1C61.827 61.9 61.5603 62.6167 61.027 63.25C60.4936 63.8833 59.8436 64.3833 59.077 64.75C58.3103 65.15 57.577 65.35 56.877 65.35ZM79.7023 69.05C78.769 69.05 78.0357 68.7167 77.5023 68.05C77.0023 67.4167 76.7523 66.4333 76.7523 65.1C76.7523 63.2667 76.919 61.0833 77.2523 58.55C77.5857 56.0167 78.0357 53.3333 78.6023 50.5C79.169 47.6667 79.7857 44.8833 80.4523 42.15C81.2523 39.0167 82.0357 36.1667 82.8023 33.6C83.6023 31.0333 84.4023 28.9833 85.2023 27.45C86.0357 25.8833 86.869 25.1 87.7023 25.1C88.469 25.1 89.1357 25.3833 89.7023 25.95C90.3023 26.4833 90.6023 27.2833 90.6023 28.35C90.6023 29.1167 90.4023 30.2167 90.0023 31.65C89.6023 33.05 89.1023 34.8 88.5023 36.9C89.6357 35.0333 90.8023 33.2 92.0023 31.4C93.2357 29.6 94.4857 27.9667 95.7523 26.5C97.019 25.0333 98.2523 23.8667 99.4523 23C100.652 22.1333 101.786 21.7 102.852 21.7C104.119 21.7 105.236 22.0667 106.202 22.8C107.202 23.5333 107.986 24.5333 108.552 25.8C109.119 27.0667 109.402 28.5 109.402 30.1C109.402 33.0667 108.869 35.95 107.802 38.75C106.736 41.5167 105.252 44 103.352 46.2C101.486 48.4 99.3023 50.15 96.8023 51.45C94.3023 52.7167 91.6023 53.35 88.7023 53.35C87.869 53.35 87.1023 53.2667 86.4023 53.1C85.7357 52.9667 85.119 52.8 84.5523 52.6C84.1523 54.7333 83.769 56.9167 83.4023 59.15C83.069 61.4167 82.719 63.8 82.3523 66.3C81.9523 68.1333 81.069 69.05 79.7023 69.05ZM103.352 27.6C102.619 27.6 101.686 28.1 100.552 29.1C99.4523 30.1 98.2523 31.4167 96.9523 33.05C95.6523 34.65 94.3357 36.4 93.0023 38.3C91.7023 40.1667 90.4523 42 89.2523 43.8C88.0857 45.6 87.0857 47.1667 86.2523 48.5C88.7857 48.2333 91.019 47.5667 92.9523 46.5C94.8857 45.4 96.5357 44.0667 97.9023 42.5C99.269 40.9333 100.369 39.2833 101.202 37.55C102.069 35.7833 102.702 34.0667 103.102 32.4C103.502 30.7333 103.702 29.2833 103.702 28.05C103.702 27.75 103.586 27.6 103.352 27.6ZM164.14 56.3C163.44 56.3 162.79 56.1333 162.19 55.8C161.59 55.4667 161.107 54.8833 160.74 54.05C160.407 53.2167 160.307 52.05 160.44 50.55C159.273 46.6167 158.207 42.7 157.24 38.8C156.307 34.9 155.423 30.8833 154.59 26.75C153.39 29.4833 152.307 32.2833 151.34 35.15C150.373 37.9833 149.507 40.6667 148.74 43.2C147.973 45.7 147.273 47.8 146.64 49.5C146.14 51 145.64 52.1167 145.14 52.85C144.64 53.55 144.14 54 143.64 54.2C143.173 54.4333 142.707 54.55 142.24 54.55C141.107 54.55 140.24 54.2833 139.64 53.75C139.04 53.2167 138.74 52.25 138.74 50.85C138.74 50.1167 138.94 49 139.34 47.5C139.74 45.9667 140.273 44.2167 140.94 42.25C141.64 40.25 142.44 38.1667 143.34 36C144.24 33.8 145.19 31.6667 146.19 29.6C147.19 27.5333 148.19 25.6667 149.19 24C150.19 22.3 151.157 20.95 152.09 19.95C153.023 18.95 153.857 18.45 154.59 18.45C155.223 18.45 155.807 18.5167 156.34 18.65C156.873 18.75 157.39 19.05 157.89 19.55C158.39 20.0167 158.907 20.8 159.44 21.9C159.873 22.7333 160.307 23.9333 160.74 25.5C161.173 27.0333 161.59 28.8 161.99 30.8C162.39 32.7667 162.79 34.8333 163.19 37C163.623 39.1667 164.057 41.2833 164.49 43.35C165.757 37.5833 166.773 32.5167 167.54 28.15C168.34 23.75 168.923 20.3 169.29 17.8C169.657 15.3 169.857 13.9833 169.89 13.85C170.123 12.8833 170.373 12.2167 170.64 11.85C170.907 11.45 171.207 11.2167 171.54 11.15C171.873 11.05 172.257 11 172.69 11C172.723 11 172.74 11 172.74 11C173.607 11 174.457 11.35 175.29 12.05C176.157 12.75 176.59 13.7 176.59 14.9C176.59 15.3 176.507 16.2 176.34 17.6C176.173 18.9667 175.923 20.7 175.59 22.8C175.29 24.8667 174.89 27.1667 174.39 29.7C173.89 32.2 173.307 34.8167 172.64 37.55C172.007 40.25 171.29 42.9333 170.49 45.6C169.69 48.2667 168.807 50.7667 167.84 53.1C167.307 54.4333 166.673 55.3 165.94 55.7C165.24 56.1 164.64 56.3 164.14 56.3ZM186.089 67.4C183.589 67.4 181.689 67.2167 180.389 66.85C179.122 66.4833 178.256 66 177.789 65.4C177.322 64.8333 177.089 64.25 177.089 63.65C177.089 62.8167 177.356 62.1333 177.889 61.6C178.456 61.0667 179.189 60.8 180.089 60.8C180.689 60.8 181.556 60.8833 182.689 61.05C183.822 61.2167 184.956 61.3 186.089 61.3C189.422 61.3 192.172 60.5 194.339 58.9C196.506 57.3333 198.206 54.95 199.439 51.75C200.672 48.5167 201.522 44.45 201.989 39.55C199.689 43.3167 197.139 46.3333 194.339 48.6C191.572 50.8667 188.689 52 185.689 52C182.156 52 180.389 50.2667 180.389 46.8C180.389 45.1333 180.839 43.3833 181.739 41.55C182.639 39.7167 183.839 37.9 185.339 36.1C186.839 34.3 188.489 32.6 190.289 31C192.089 29.3667 193.889 27.9333 195.689 26.7C197.522 25.4667 199.222 24.5 200.789 23.8C202.356 23.0667 203.622 22.7 204.589 22.7C205.356 22.7 206.022 22.8333 206.589 23.1C207.189 23.3667 207.656 23.9 207.989 24.7C208.322 25.4667 208.489 26.6 208.489 28.1C208.489 32.2667 208.339 36.3 208.039 40.2C207.739 44.0667 207.156 47.65 206.289 50.95C205.422 54.25 204.156 57.1333 202.489 59.6C200.856 62.0667 198.706 63.9833 196.039 65.35C193.372 66.7167 190.056 67.4 186.089 67.4ZM186.789 45.8C186.789 46.0333 186.889 46.15 187.089 46.15C187.756 46.15 188.656 45.8 189.789 45.1C190.922 44.3667 192.139 43.4 193.439 42.2C194.772 40.9667 196.072 39.6 197.339 38.1C198.606 36.5667 199.722 34.9833 200.689 33.35C201.689 31.7167 202.406 30.1333 202.839 28.6C201.106 29.6 199.306 30.7667 197.439 32.1C195.606 33.4 193.872 34.8 192.239 36.3C190.639 37.8 189.322 39.3667 188.289 41C187.289 42.6 186.789 44.2 186.789 45.8ZM220.452 54.9C219.386 54.9 218.419 54.6 217.552 54C216.686 53.4333 216.002 52.6833 215.502 51.75C215.002 50.7833 214.752 49.75 214.752 48.65C214.752 46.5833 215.202 44.5667 216.102 42.6C217.036 40.6333 218.252 38.7667 219.752 37C221.252 35.2333 222.886 33.6167 224.652 32.15C226.452 30.65 228.236 29.3667 230.002 28.3C231.802 27.2333 233.436 26.4 234.902 25.8C236.402 25.2 237.569 24.9 238.402 24.9C239.369 24.9 240.152 25.1167 240.752 25.55C241.386 25.95 241.702 26.5833 241.702 27.45C241.702 27.7167 241.636 27.9333 241.502 28.1C241.936 28.2 242.286 28.45 242.552 28.85C242.819 29.25 242.952 29.85 242.952 30.65C242.952 30.9833 242.869 31.85 242.702 33.25C242.536 34.65 242.352 36.35 242.152 38.35C241.986 40.35 241.902 42.4333 241.902 44.6C241.902 44.9333 241.952 45.2333 242.052 45.5C242.152 45.7333 242.369 45.85 242.702 45.85C244.036 45.85 245.386 45.5833 246.752 45.05C248.152 44.4833 249.502 43.8 250.802 43C252.136 42.1667 253.336 41.35 254.402 40.55C255.502 39.7167 256.419 39.0333 257.152 38.5C257.919 37.9333 258.419 37.65 258.652 37.65C259.786 37.65 260.352 38.2167 260.352 39.35C260.352 39.65 259.986 40.2833 259.252 41.25C258.552 42.1833 257.586 43.2667 256.352 44.5C255.119 45.7 253.736 46.9 252.202 48.1C250.702 49.2667 249.136 50.2333 247.502 51C245.902 51.7667 244.352 52.15 242.852 52.15C241.019 52.15 239.619 51.7167 238.652 50.85C237.719 49.9833 237.052 48.8167 236.652 47.35C236.286 45.85 236.086 44.1667 236.052 42.3C234.352 44.7333 232.586 46.9 230.752 48.8C228.952 50.6667 227.169 52.15 225.402 53.25C223.636 54.35 221.986 54.9 220.452 54.9ZM238.152 29.85C234.886 31.4167 231.952 33.2167 229.352 35.25C226.752 37.25 224.686 39.35 223.152 41.55C221.652 43.75 220.902 45.8667 220.902 47.9C220.902 48.4667 221.169 48.75 221.702 48.75C222.336 48.75 223.169 48.3833 224.202 47.65C225.269 46.9167 226.419 45.95 227.652 44.75C228.886 43.5167 230.119 42.15 231.352 40.65C232.586 39.1167 233.736 37.55 234.802 35.95C235.869 34.35 236.719 32.8167 237.352 31.35C237.586 30.8167 237.852 30.3167 238.152 29.85ZM240.252 21.25C239.952 21.25 239.586 20.9167 239.152 20.25C238.719 19.55 238.269 18.6833 237.802 17.65C237.336 16.5833 236.919 15.5167 236.552 14.45C236.019 15.45 235.469 16.4833 234.902 17.55C234.336 18.6167 233.886 19.4667 233.552 20.1C233.186 20.8333 232.802 21.4167 232.402 21.85C232.002 22.2833 231.419 22.5 230.652 22.5C229.919 22.5 229.336 22.2667 228.902 21.8C228.502 21.3 228.302 20.5333 228.302 19.5C228.302 18.7333 228.536 17.8 229.002 16.7C229.502 15.6 230.119 14.4667 230.852 13.3C231.619 12.1333 232.419 11.0333 233.252 10C234.086 8.96667 234.852 8.13333 235.552 7.5C236.252 6.86667 236.769 6.55 237.102 6.55C237.836 6.55 238.386 6.66667 238.752 6.9C239.119 7.1 239.519 7.7 239.952 8.7C240.152 9.2 240.402 9.9 240.702 10.8C241.036 11.6667 241.352 12.5833 241.652 13.55C241.952 14.4833 242.202 15.35 242.402 16.15C242.636 16.95 242.752 17.5333 242.752 17.9C242.752 20.1333 241.919 21.25 240.252 21.25ZM236.223 23.2C234.923 23.2 234.273 22.55 234.273 21.25C234.273 21.0167 234.473 20.4333 234.873 19.5C235.24 18.5667 235.723 17.4667 236.323 16.2C236.923 14.9 237.54 13.6167 238.173 12.35C238.807 11.0833 239.39 10 239.923 9.1C240.257 8.53333 240.623 8.1 241.023 7.8C241.457 7.5 242.007 7.35 242.673 7.35C243.707 7.35 244.473 7.68333 244.973 8.35C245.473 8.98333 245.723 9.83333 245.723 10.9C245.723 11.1333 245.507 11.6167 245.073 12.35C244.64 13.05 244.09 13.8833 243.423 14.85C242.757 15.8167 242.057 16.8 241.323 17.8C240.623 18.8 239.973 19.7 239.373 20.5C238.807 21.2667 238.39 21.8167 238.123 22.15C237.857 22.4833 237.59 22.75 237.323 22.95C237.057 23.1167 236.69 23.2 236.223 23.2ZM292.149 27.8C292.149 28.2 292.016 28.55 291.749 28.85C291.483 29.15 291.149 29.3833 290.749 29.55C290.183 29.7833 289.199 30.0833 287.799 30.45C286.399 30.8167 284.699 31.2333 282.699 31.7C280.733 32.1667 278.616 32.65 276.349 33.15C274.083 33.6167 271.816 34.0667 269.549 34.5C268.683 37.7 267.799 41 266.899 44.4C265.999 47.7667 265.099 51.0833 264.199 54.35C263.866 55.5167 263.466 56.4 262.999 57C262.533 57.6333 261.733 57.95 260.599 57.95C259.366 57.95 258.533 57.55 258.099 56.75C257.699 55.9833 257.649 54.9333 257.949 53.6C258.816 49.9667 259.616 46.5833 260.349 43.45C261.116 40.3167 261.733 37.7833 262.199 35.85C260.199 36.1833 258.449 36.45 256.949 36.65C255.449 36.8167 254.383 36.8833 253.749 36.85C253.049 36.7833 252.466 36.5 251.999 36C251.533 35.5 251.316 34.8833 251.349 34.15C251.416 33.4833 251.716 32.9167 252.249 32.45C252.783 31.95 253.416 31.65 254.149 31.55C255.183 31.45 256.516 31.3 258.149 31.1C259.783 30.9 261.583 30.6667 263.549 30.4C263.983 28.7 264.483 26.95 265.049 25.15C265.616 23.3167 266.199 21.5667 266.799 19.9C267.433 18.2 268.033 16.7167 268.599 15.45C269.166 14.1833 269.683 13.2667 270.149 12.7C270.516 12.2667 270.966 11.9333 271.499 11.7C272.066 11.4667 272.616 11.35 273.149 11.35C273.849 11.35 274.416 11.6 274.849 12.1C275.283 12.6 275.499 13.1833 275.499 13.85C275.499 14.1167 275.483 14.4 275.449 14.7C275.416 14.9667 275.349 15.2333 275.249 15.5C274.616 17.1667 273.933 19.1833 273.199 21.55C272.499 23.9167 271.766 26.5167 270.999 29.35C273.499 28.9833 275.949 28.6167 278.349 28.25C280.783 27.85 282.983 27.4833 284.949 27.15C286.949 26.7833 288.549 26.4667 289.749 26.2C290.416 25.9667 290.983 26.0167 291.449 26.35C291.916 26.65 292.149 27.1333 292.149 27.8ZM334.257 56.3C333.557 56.3 332.907 56.1333 332.307 55.8C331.707 55.4667 331.224 54.8833 330.857 54.05C330.524 53.2167 330.424 52.05 330.557 50.55C329.39 46.6167 328.324 42.7 327.357 38.8C326.424 34.9 325.54 30.8833 324.707 26.75C323.507 29.4833 322.424 32.2833 321.457 35.15C320.49 37.9833 319.624 40.6667 318.857 43.2C318.09 45.7 317.39 47.8 316.757 49.5C316.257 51 315.757 52.1167 315.257 52.85C314.757 53.55 314.257 54 313.757 54.2C313.29 54.4333 312.824 54.55 312.357 54.55C311.224 54.55 310.357 54.2833 309.757 53.75C309.157 53.2167 308.857 52.25 308.857 50.85C308.857 50.1167 309.057 49 309.457 47.5C309.857 45.9667 310.39 44.2167 311.057 42.25C311.757 40.25 312.557 38.1667 313.457 36C314.357 33.8 315.307 31.6667 316.307 29.6C317.307 27.5333 318.307 25.6667 319.307 24C320.307 22.3 321.274 20.95 322.207 19.95C323.14 18.95 323.974 18.45 324.707 18.45C325.34 18.45 325.924 18.5167 326.457 18.65C326.99 18.75 327.507 19.05 328.007 19.55C328.507 20.0167 329.024 20.8 329.557 21.9C329.99 22.7333 330.424 23.9333 330.857 25.5C331.29 27.0333 331.707 28.8 332.107 30.8C332.507 32.7667 332.907 34.8333 333.307 37C333.74 39.1667 334.174 41.2833 334.607 43.35C335.874 37.5833 336.89 32.5167 337.657 28.15C338.457 23.75 339.04 20.3 339.407 17.8C339.774 15.3 339.974 13.9833 340.007 13.85C340.24 12.8833 340.49 12.2167 340.757 11.85C341.024 11.45 341.324 11.2167 341.657 11.15C341.99 11.05 342.374 11 342.807 11C342.84 11 342.857 11 342.857 11C343.724 11 344.574 11.35 345.407 12.05C346.274 12.75 346.707 13.7 346.707 14.9C346.707 15.3 346.624 16.2 346.457 17.6C346.29 18.9667 346.04 20.7 345.707 22.8C345.407 24.8667 345.007 27.1667 344.507 29.7C344.007 32.2 343.424 34.8167 342.757 37.55C342.124 40.25 341.407 42.9333 340.607 45.6C339.807 48.2667 338.924 50.7667 337.957 53.1C337.424 54.4333 336.79 55.3 336.057 55.7C335.357 56.1 334.757 56.3 334.257 56.3ZM356.206 67.4C353.706 67.4 351.806 67.2167 350.506 66.85C349.24 66.4833 348.373 66 347.906 65.4C347.44 64.8333 347.206 64.25 347.206 63.65C347.206 62.8167 347.473 62.1333 348.006 61.6C348.573 61.0667 349.306 60.8 350.206 60.8C350.806 60.8 351.673 60.8833 352.806 61.05C353.94 61.2167 355.073 61.3 356.206 61.3C359.54 61.3 362.29 60.5 364.456 58.9C366.623 57.3333 368.323 54.95 369.556 51.75C370.79 48.5167 371.64 44.45 372.106 39.55C369.806 43.3167 367.256 46.3333 364.456 48.6C361.69 50.8667 358.806 52 355.806 52C352.273 52 350.506 50.2667 350.506 46.8C350.506 45.1333 350.956 43.3833 351.856 41.55C352.756 39.7167 353.956 37.9 355.456 36.1C356.956 34.3 358.606 32.6 360.406 31C362.206 29.3667 364.006 27.9333 365.806 26.7C367.64 25.4667 369.34 24.5 370.906 23.8C372.473 23.0667 373.74 22.7 374.706 22.7C375.473 22.7 376.14 22.8333 376.706 23.1C377.306 23.3667 377.773 23.9 378.106 24.7C378.44 25.4667 378.606 26.6 378.606 28.1C378.606 32.2667 378.456 36.3 378.156 40.2C377.856 44.0667 377.273 47.65 376.406 50.95C375.54 54.25 374.273 57.1333 372.606 59.6C370.973 62.0667 368.823 63.9833 366.156 65.35C363.49 66.7167 360.173 67.4 356.206 67.4ZM356.906 45.8C356.906 46.0333 357.006 46.15 357.206 46.15C357.873 46.15 358.773 45.8 359.906 45.1C361.04 44.3667 362.256 43.4 363.556 42.2C364.89 40.9667 366.19 39.6 367.456 38.1C368.723 36.5667 369.84 34.9833 370.806 33.35C371.806 31.7167 372.523 30.1333 372.956 28.6C371.223 29.6 369.423 30.7667 367.556 32.1C365.723 33.4 363.99 34.8 362.356 36.3C360.756 37.8 359.44 39.3667 358.406 41C357.406 42.6 356.906 44.2 356.906 45.8ZM390.57 54.9C389.503 54.9 388.536 54.6 387.67 54C386.803 53.4333 386.12 52.6833 385.62 51.75C385.12 50.7833 384.87 49.75 384.87 48.65C384.87 46.5833 385.32 44.5667 386.22 42.6C387.153 40.6333 388.37 38.7667 389.87 37C391.37 35.2333 393.003 33.6167 394.77 32.15C396.57 30.65 398.353 29.3667 400.12 28.3C401.92 27.2333 403.553 26.4 405.02 25.8C406.52 25.2 407.686 24.9 408.52 24.9C409.486 24.9 410.27 25.1167 410.87 25.55C411.503 25.95 411.82 26.5833 411.82 27.45C411.82 27.7167 411.753 27.9333 411.62 28.1C412.053 28.2 412.403 28.45 412.67 28.85C412.936 29.25 413.07 29.85 413.07 30.65C413.07 30.9833 412.986 31.85 412.82 33.25C412.653 34.65 412.47 36.35 412.27 38.35C412.103 40.35 412.02 42.4333 412.02 44.6C412.02 44.9333 412.07 45.2333 412.17 45.5C412.27 45.7333 412.486 45.85 412.82 45.85C414.153 45.85 415.503 45.5833 416.87 45.05C418.27 44.4833 419.62 43.8 420.92 43C422.253 42.1667 423.453 41.35 424.52 40.55C425.62 39.7167 426.536 39.0333 427.27 38.5C428.036 37.9333 428.536 37.65 428.77 37.65C429.903 37.65 430.47 38.2167 430.47 39.35C430.47 39.65 430.103 40.2833 429.37 41.25C428.67 42.1833 427.703 43.2667 426.47 44.5C425.236 45.7 423.853 46.9 422.32 48.1C420.82 49.2667 419.253 50.2333 417.62 51C416.02 51.7667 414.47 52.15 412.97 52.15C411.136 52.15 409.736 51.7167 408.77 50.85C407.836 49.9833 407.17 48.8167 406.77 47.35C406.403 45.85 406.203 44.1667 406.17 42.3C404.47 44.7333 402.703 46.9 400.87 48.8C399.07 50.6667 397.286 52.15 395.52 53.25C393.753 54.35 392.103 54.9 390.57 54.9ZM408.27 29.85C405.003 31.4167 402.07 33.2167 399.47 35.25C396.87 37.25 394.803 39.35 393.27 41.55C391.77 43.75 391.02 45.8667 391.02 47.9C391.02 48.4667 391.286 48.75 391.82 48.75C392.453 48.75 393.286 48.3833 394.32 47.65C395.386 46.9167 396.536 45.95 397.77 44.75C399.003 43.5167 400.236 42.15 401.47 40.65C402.703 39.1167 403.853 37.55 404.92 35.95C405.986 34.35 406.836 32.8167 407.47 31.35C407.703 30.8167 407.97 30.3167 408.27 29.85ZM410.37 21.25C410.07 21.25 409.703 20.9167 409.27 20.25C408.836 19.55 408.386 18.6833 407.92 17.65C407.453 16.5833 407.036 15.5167 406.67 14.45C406.136 15.45 405.586 16.4833 405.02 17.55C404.453 18.6167 404.003 19.4667 403.67 20.1C403.303 20.8333 402.92 21.4167 402.52 21.85C402.12 22.2833 401.536 22.5 400.77 22.5C400.036 22.5 399.453 22.2667 399.02 21.8C398.62 21.3 398.42 20.5333 398.42 19.5C398.42 18.7333 398.653 17.8 399.12 16.7C399.62 15.6 400.236 14.4667 400.97 13.3C401.736 12.1333 402.536 11.0333 403.37 10C404.203 8.96667 404.97 8.13333 405.67 7.5C406.37 6.86667 406.886 6.55 407.22 6.55C407.953 6.55 408.503 6.66667 408.87 6.9C409.236 7.1 409.636 7.7 410.07 8.7C410.27 9.2 410.52 9.9 410.82 10.8C411.153 11.6667 411.47 12.5833 411.77 13.55C412.07 14.4833 412.32 15.35 412.52 16.15C412.753 16.95 412.87 17.5333 412.87 17.9C412.87 20.1333 412.036 21.25 410.37 21.25ZM433.87 66.75C432.004 66.75 430.304 66.6333 428.77 66.4C427.237 66.2 425.737 65.8667 424.27 65.4C422.804 64.9333 421.22 64.3167 419.52 63.55C418.82 63.2167 418.237 62.8667 417.77 62.5C417.304 62.1333 417.07 61.5833 417.07 60.85C417.07 59.7833 417.404 58.9667 418.07 58.4C418.704 57.8667 419.587 57.6 420.72 57.6C421.32 57.6 422.087 57.8 423.02 58.2C423.954 58.6333 425.02 59.1167 426.22 59.65C427.454 60.2167 428.82 60.7 430.32 61.1C431.82 61.5333 433.437 61.75 435.17 61.75C436.937 61.75 438.587 61.0167 440.12 59.55C441.654 58.0833 442.887 56.0167 443.82 53.35C444.787 50.7167 445.27 47.6 445.27 44C445.27 43.1667 445.254 42.2667 445.22 41.3C445.187 40.3 445.154 39.25 445.12 38.15C443.92 40.4167 442.62 42.5333 441.22 44.5C439.82 46.4667 438.37 48.0667 436.87 49.3C435.404 50.5 433.92 51.1 432.42 51.1C430.587 51.1 429.254 50.6667 428.42 49.8C427.62 48.9 427.22 47.4833 427.22 45.55C427.22 43.9167 427.337 42.1333 427.57 40.2C427.837 38.2333 428.187 36.25 428.62 34.25C429.054 32.25 429.554 30.35 430.12 28.55C430.72 26.7167 431.354 25.1333 432.02 23.8C432.52 22.8333 433.287 22.35 434.32 22.35C434.987 22.35 435.654 22.6667 436.32 23.3C437.02 23.9333 437.37 24.7833 437.37 25.85C437.37 26.45 437.22 27.3167 436.92 28.45C436.62 29.5833 436.254 30.8667 435.82 32.3C435.42 33.7 435.004 35.1833 434.57 36.75C434.137 38.2833 433.77 39.8 433.47 41.3C433.17 42.7667 433.02 44.1 433.02 45.3C433.02 45.4333 433.12 45.5 433.32 45.5C433.72 45.5 434.254 45.1667 434.92 44.5C435.62 43.8 436.387 42.9 437.22 41.8C438.087 40.6667 438.954 39.4333 439.82 38.1C440.72 36.7333 441.587 35.3833 442.42 34.05C443.254 32.7167 444.004 31.5 444.67 30.4C444.57 29.8667 444.504 29.4 444.47 29C444.47 28.5667 444.47 28.2 444.47 27.9C444.47 26.5333 444.704 25.4 445.17 24.5C445.67 23.6 446.637 23.15 448.07 23.15C449.004 23.15 449.72 23.5 450.22 24.2C450.72 24.8667 450.97 25.8167 450.97 27.05C450.97 27.5833 450.887 28.2 450.72 28.9C450.554 29.5667 450.22 30.6333 449.72 32.1L450.27 30.55C450.57 33.55 450.82 36.2167 451.02 38.55C451.254 40.8833 451.37 43.2 451.37 45.5C451.37 49.8333 450.637 53.5833 449.17 56.75C447.737 59.95 445.704 62.4167 443.07 64.15C440.47 65.8833 437.404 66.75 433.87 66.75ZM508.951 44.05C509.985 44.05 510.718 44.3333 511.151 44.9C511.585 45.4333 511.801 46 511.801 46.6C511.801 47.4333 511.385 48.3167 510.551 49.25C509.718 50.1833 508.635 51.05 507.301 51.85C506.001 52.6167 504.601 53.25 503.101 53.75C501.601 54.25 500.168 54.5 498.801 54.5C496.768 54.5 494.818 53.95 492.951 52.85C491.118 51.7167 489.618 50.1333 488.451 48.1C487.318 46.0667 486.751 43.65 486.751 40.85C486.751 38.55 487.185 36.2667 488.051 34C488.951 31.7333 490.135 29.55 491.601 27.45C493.101 25.35 494.735 23.4 496.501 21.6C498.301 19.8 500.101 18.2333 501.901 16.9C503.735 15.5667 505.418 14.5333 506.951 13.8C508.485 13.0333 509.718 12.65 510.651 12.65C511.818 12.65 512.685 12.95 513.251 13.55C513.851 14.1167 514.151 14.9167 514.151 15.95C514.151 16.7833 513.985 17.4333 513.651 17.9C513.351 18.3333 512.868 18.7167 512.201 19.05C510.068 20.15 507.901 21.4833 505.701 23.05C503.535 24.6167 501.551 26.35 499.751 28.25C497.951 30.1167 496.501 32.0833 495.401 34.15C494.301 36.2167 493.751 38.3167 493.751 40.45C493.751 42.7833 494.218 44.55 495.151 45.75C496.085 46.95 497.351 47.55 498.951 47.55C499.751 47.55 500.618 47.3833 501.551 47.05C502.485 46.6833 503.401 46.2667 504.301 45.8C505.235 45.3333 506.101 44.9333 506.901 44.6C507.735 44.2333 508.418 44.05 508.951 44.05ZM538.294 55.25C537.527 55.25 536.827 54.9333 536.194 54.3C535.594 53.7 535.294 52.6833 535.294 51.25C535.294 50.1833 535.377 48.7 535.544 46.8C535.744 44.8667 536.11 42.3833 536.644 39.35C535.477 41.75 534.26 43.8833 532.994 45.75C531.727 47.6167 530.477 49.0833 529.244 50.15C528.044 51.1833 526.894 51.7 525.794 51.7C524.027 51.7 522.627 51.1667 521.594 50.1C520.56 49 520.044 46.95 520.044 43.95C520.044 42.5167 520.16 40.9 520.394 39.1C520.66 37.3 520.994 35.5 521.394 33.7C521.794 31.9 522.194 30.3 522.594 28.9C523.027 27.4667 523.41 26.4 523.744 25.7C524.01 25.1 524.344 24.6333 524.744 24.3C525.177 23.9667 525.727 23.8 526.394 23.8C527.46 23.8 528.277 24.15 528.844 24.85C529.41 25.55 529.694 26.2667 529.694 27C529.694 27.5667 529.56 28.3833 529.294 29.45C529.06 30.5167 528.76 31.7 528.394 33C528.06 34.3 527.71 35.6333 527.344 37C526.977 38.3667 526.66 39.65 526.394 40.85C526.16 42.05 526.044 43.0667 526.044 43.9C526.044 44.9333 526.444 45.45 527.244 45.45C527.71 45.45 528.31 45 529.044 44.1C529.81 43.2 530.61 42 531.444 40.5C532.31 38.9667 533.177 37.3 534.044 35.5C534.944 33.6667 535.76 31.8167 536.494 29.95C537.26 28.05 537.91 26.3 538.444 24.7C538.777 23.7 539.227 23 539.794 22.6C540.36 22.2 541.01 22 541.744 22C542.877 22 543.744 22.3167 544.344 22.95C544.977 23.5833 545.294 24.4833 545.294 25.65C545.294 26.1833 545.21 27.0833 545.044 28.35C544.877 29.6167 544.66 31.1 544.394 32.8C544.16 34.5 543.877 36.3 543.544 38.2C543.21 40.1 542.877 41.9667 542.544 43.8C542.244 45.6333 541.944 47.3167 541.644 48.85C541.344 50.35 541.094 51.55 540.894 52.45C540.56 53.7833 540.16 54.5833 539.694 54.85C539.227 55.1167 538.76 55.25 538.294 55.25ZM534.094 21.85C533.227 21.85 532.527 21.4833 531.994 20.75C531.694 20.35 531.26 19.7667 530.694 19C530.16 18.2 529.577 17.3167 528.944 16.35C528.344 15.3833 527.76 14.45 527.194 13.55C526.627 12.6167 526.16 11.8167 525.794 11.15C525.427 10.45 525.244 9.98333 525.244 9.75C525.244 8.68333 525.494 7.83333 525.994 7.2C526.494 6.53333 527.244 6.2 528.244 6.2C528.877 6.2 529.394 6.35 529.794 6.65C530.194 6.91666 530.577 7.3 530.944 7.8C531.544 8.7 532.144 9.76666 532.744 11C533.377 12.2333 533.944 13.4667 534.444 14.7C534.977 15.9333 535.394 17.0167 535.694 17.95C535.994 18.85 536.144 19.4333 536.144 19.7C536.144 21.1333 535.46 21.85 534.094 21.85ZM556.54 53C555.74 53 554.94 52.7333 554.14 52.2C553.373 51.6333 552.74 50.8333 552.24 49.8C551.74 48.7333 551.49 47.45 551.49 45.95C551.49 43.95 551.757 41.8167 552.29 39.55C552.857 37.2833 553.54 35.0167 554.34 32.75C555.14 30.4833 555.923 28.35 556.69 26.35C557.057 25.3833 557.507 24.7333 558.04 24.4C558.573 24.0333 559.273 23.85 560.14 23.85C562.107 23.85 563.09 24.8333 563.09 26.8C563.09 27.1333 562.94 27.7833 562.64 28.75C562.34 29.6833 561.94 30.8333 561.44 32.2C560.973 33.5667 560.473 35.05 559.94 36.65C559.44 38.2167 558.973 39.8167 558.54 41.45C558.14 43.05 557.823 44.5667 557.59 46C558.357 44.8333 559.207 43.3833 560.14 41.65C561.107 39.8833 562.123 38.0333 563.19 36.1C564.29 34.1667 565.39 32.3667 566.49 30.7C567.59 29 568.673 27.6167 569.74 26.55C570.807 25.4833 571.823 24.95 572.79 24.95C573.623 24.95 574.407 25.1167 575.14 25.45C575.907 25.75 576.573 26.35 577.14 27.25C577.707 28.1167 578.14 29.3667 578.44 31C578.773 32.6333 578.94 34.7833 578.94 37.45C578.94 38.7833 579.057 40.0833 579.29 41.35C579.557 42.5833 579.99 43.6167 580.59 44.45C581.19 45.25 582.04 45.65 583.14 45.65C585.04 45.65 586.74 45.3 588.24 44.6C589.74 43.9 591.057 43.0833 592.19 42.15C593.323 41.2167 594.273 40.4 595.04 39.7C595.507 39.2333 595.907 38.8667 596.24 38.6C596.607 38.3333 596.907 38.2 597.14 38.2C597.84 38.2 598.34 38.3833 598.64 38.75C598.973 39.1167 599.14 39.6167 599.14 40.25C599.14 40.5833 598.857 41.2 598.29 42.1C597.723 43 596.923 44.0333 595.89 45.2C594.89 46.3333 593.74 47.4333 592.44 48.5C591.14 49.5667 589.74 50.45 588.24 51.15C586.74 51.85 585.207 52.2 583.64 52.2C581.007 52.2 578.823 51.7333 577.09 50.8C575.39 49.8333 574.123 48.2333 573.29 46C572.457 43.7333 572.04 40.65 572.04 36.75C572.04 36.65 572.04 36.4833 572.04 36.25C572.04 35.2167 572.023 34.3 571.99 33.5C571.99 32.7 571.94 32.05 571.84 31.55C571.273 32.5833 570.59 33.8167 569.79 35.25C569.023 36.6833 568.19 38.2167 567.29 39.85C566.39 41.45 565.457 43.0333 564.49 44.6C563.523 46.1333 562.557 47.5333 561.59 48.8C560.657 50.0667 559.757 51.0833 558.89 51.85C558.023 52.6167 557.24 53 556.54 53ZM598.736 67.4C596.236 67.4 594.336 67.2167 593.036 66.85C591.769 66.4833 590.902 66 590.436 65.4C589.969 64.8333 589.736 64.25 589.736 63.65C589.736 62.8167 590.002 62.1333 590.536 61.6C591.102 61.0667 591.836 60.8 592.736 60.8C593.336 60.8 594.202 60.8833 595.336 61.05C596.469 61.2167 597.602 61.3 598.736 61.3C602.069 61.3 604.819 60.5 606.986 58.9C609.152 57.3333 610.852 54.95 612.086 51.75C613.319 48.5167 614.169 44.45 614.636 39.55C612.336 43.3167 609.786 46.3333 606.986 48.6C604.219 50.8667 601.336 52 598.336 52C594.802 52 593.036 50.2667 593.036 46.8C593.036 45.1333 593.486 43.3833 594.386 41.55C595.286 39.7167 596.486 37.9 597.986 36.1C599.486 34.3 601.136 32.6 602.936 31C604.736 29.3667 606.536 27.9333 608.336 26.7C610.169 25.4667 611.869 24.5 613.436 23.8C615.002 23.0667 616.269 22.7 617.236 22.7C618.002 22.7 618.669 22.8333 619.236 23.1C619.836 23.3667 620.302 23.9 620.636 24.7C620.969 25.4667 621.136 26.6 621.136 28.1C621.136 32.2667 620.986 36.3 620.686 40.2C620.386 44.0667 619.802 47.65 618.936 50.95C618.069 54.25 616.802 57.1333 615.136 59.6C613.502 62.0667 611.352 63.9833 608.686 65.35C606.019 66.7167 602.702 67.4 598.736 67.4ZM599.436 45.8C599.436 46.0333 599.536 46.15 599.736 46.15C600.402 46.15 601.302 45.8 602.436 45.1C603.569 44.3667 604.786 43.4 606.086 42.2C607.419 40.9667 608.719 39.6 609.986 38.1C611.252 36.5667 612.369 34.9833 613.336 33.35C614.336 31.7167 615.052 30.1333 615.486 28.6C613.752 29.6 611.952 30.7667 610.086 32.1C608.252 33.4 606.519 34.8 604.886 36.3C603.286 37.8 601.969 39.3667 600.936 41C599.936 42.6 599.436 44.2 599.436 45.8ZM658.038 55.15C656.371 55.15 655.188 54.75 654.488 53.95C653.821 53.1833 653.488 52.3833 653.488 51.55C653.488 50.8167 653.655 50.1333 653.988 49.5C654.355 48.8333 654.988 48.3 655.888 47.9C656.788 47.5 658.071 47.3333 659.738 47.4C661.405 46.5333 663.088 45.4667 664.788 44.2C666.521 42.9333 668.171 41.5333 669.738 40C671.338 38.4667 672.755 36.9 673.988 35.3C675.255 33.6667 676.238 32.0667 676.938 30.5C677.671 28.9 678.038 27.4 678.038 26C678.038 24.5 677.571 23.3667 676.638 22.6C675.738 21.8333 674.471 21.45 672.838 21.45C671.438 21.45 670.155 21.6167 668.988 21.95C667.821 22.25 666.788 22.6167 665.888 23.05C664.988 23.4833 664.221 23.8667 663.588 24.2C662.988 24.5 662.505 24.65 662.138 24.65C661.505 24.65 660.938 24.3833 660.438 23.85C659.938 23.2833 659.788 22.55 659.988 21.65C660.121 21.05 660.521 20.3333 661.188 19.5C661.855 18.6667 662.771 17.8333 663.938 17C665.105 16.1667 666.488 15.4833 668.088 14.95C669.721 14.3833 671.555 14.1 673.588 14.1C676.855 14.1 679.505 15.1 681.538 17.1C683.605 19.1 684.638 22.15 684.638 26.25C684.638 28.95 683.921 31.6 682.488 34.2C681.088 36.8 679.221 39.2667 676.888 41.6C674.555 43.9333 672.005 46.0667 669.238 48C671.738 47.9 673.688 47.75 675.088 47.55C676.488 47.3167 677.605 47.1167 678.438 46.95C679.305 46.7833 680.138 46.7 680.938 46.7C682.071 46.7 682.955 46.9333 683.588 47.4C684.221 47.8667 684.538 48.5333 684.538 49.4C684.538 50.0333 684.371 50.65 684.038 51.25C683.738 51.85 683.138 52.4 682.238 52.9C681.338 53.3667 680.038 53.7333 678.338 54C676.638 54.3 674.405 54.45 671.638 54.45C670.005 54.45 668.321 54.4333 666.588 54.4C664.888 54.3667 663.238 54.3167 661.638 54.25C660.705 54.5833 659.971 54.8167 659.438 54.95C658.938 55.0833 658.471 55.15 658.038 55.15ZM731.231 54.7C730.131 54.7 729.065 54.5667 728.031 54.3C726.998 54.0667 726.065 53.5 725.231 52.6C724.398 51.7 723.715 50.3 723.181 48.4C722.648 46.4667 722.331 43.85 722.231 40.55C720.831 42.9833 719.281 45.1667 717.581 47.1C715.915 49.0333 714.231 50.5667 712.531 51.7C710.865 52.8 709.298 53.35 707.831 53.35C706.365 53.35 705.031 52.9833 703.831 52.25C702.665 51.5167 701.731 50.2833 701.031 48.55C700.365 46.8167 700.031 44.4667 700.031 41.5C700.031 39.2 700.231 36.8667 700.631 34.5C701.031 32.1 701.548 29.8167 702.181 27.65C702.815 25.45 703.498 23.4833 704.231 21.75C704.965 20.0167 705.681 18.65 706.381 17.65C707.115 16.65 707.748 16.15 708.281 16.15C709.548 16.15 710.481 16.4833 711.081 17.15C711.681 17.7833 711.981 18.6 711.981 19.6C711.981 20.0333 711.798 20.8833 711.431 22.15C711.065 23.3833 710.615 24.8833 710.081 26.65C709.548 28.3833 708.998 30.25 708.431 32.25C707.898 34.2167 707.448 36.1667 707.081 38.1C706.715 40.0333 706.531 41.8 706.531 43.4C706.531 44.0667 706.581 44.6333 706.681 45.1C706.815 45.5333 707.048 45.75 707.381 45.75C709.148 45.75 710.781 45.0833 712.281 43.75C713.815 42.3833 715.215 40.5833 716.481 38.35C717.781 36.0833 718.931 33.6 719.931 30.9C720.965 28.1667 721.881 25.4333 722.681 22.7C722.615 22.1 722.565 21.5167 722.531 20.95C722.531 20.3833 722.531 19.7667 722.531 19.1C722.531 18.3667 722.815 17.5833 723.381 16.75C723.948 15.9167 724.631 15.2167 725.431 14.65C726.265 14.05 727.048 13.75 727.781 13.75C728.615 13.75 729.298 14.0167 729.831 14.55C730.398 15.0833 730.681 16.0167 730.681 17.35C730.681 18.45 730.631 19.3667 730.531 20.1C730.465 20.8 730.348 21.4667 730.181 22.1C730.048 22.7333 729.898 23.45 729.731 24.25C729.598 25.0167 729.448 26.0167 729.281 27.25C729.148 28.4833 729.031 30.0667 728.931 32C728.865 33.9333 728.831 36.3667 728.831 39.3C728.831 39.5 728.831 39.7 728.831 39.9C728.831 40.0667 728.831 40.25 728.831 40.45C728.798 41.3833 728.815 42.3333 728.881 43.3C728.948 44.2667 729.198 45.0667 729.631 45.7C730.065 46.3333 730.831 46.65 731.931 46.65C733.131 46.65 734.265 45.8833 735.331 44.35C736.398 42.8167 737.348 40.6833 738.181 37.95C739.015 35.1833 739.731 31.95 740.331 28.25C740.931 24.5167 741.381 20.4833 741.681 16.15C741.781 14.6833 742.031 13.5833 742.431 12.85C742.865 12.1167 743.348 11.6333 743.881 11.4C744.415 11.1333 744.881 11 745.281 11C745.681 11 746.165 11.0667 746.731 11.2C747.298 11.3333 747.798 11.7167 748.231 12.35C748.665 12.9833 748.881 14.05 748.881 15.55C748.881 21.2833 748.465 26.3167 747.631 30.65C746.798 34.9833 745.715 38.6833 744.381 41.75C743.048 44.8167 741.581 47.3 739.981 49.2C738.415 51.1 736.865 52.4833 735.331 53.35C733.798 54.25 732.431 54.7 731.231 54.7ZM758.148 54.9C757.081 54.9 756.114 54.6 755.248 54C754.381 53.4333 753.698 52.6833 753.198 51.75C752.698 50.7833 752.448 49.75 752.448 48.65C752.448 46.5833 752.898 44.5667 753.798 42.6C754.731 40.6333 755.948 38.7667 757.448 37C758.948 35.2333 760.581 33.6167 762.348 32.15C764.148 30.65 765.931 29.3667 767.698 28.3C769.498 27.2333 771.131 26.4 772.598 25.8C774.098 25.2 775.264 24.9 776.098 24.9C777.064 24.9 777.848 25.1167 778.448 25.55C779.081 25.95 779.398 26.5833 779.398 27.45C779.398 27.7167 779.331 27.9333 779.198 28.1C779.631 28.2 779.981 28.45 780.248 28.85C780.514 29.25 780.648 29.85 780.648 30.65C780.648 30.9833 780.564 31.85 780.398 33.25C780.231 34.65 780.048 36.35 779.848 38.35C779.681 40.35 779.598 42.4333 779.598 44.6C779.598 44.9333 779.648 45.2333 779.748 45.5C779.848 45.7333 780.064 45.85 780.398 45.85C781.731 45.85 783.081 45.5833 784.448 45.05C785.848 44.4833 787.198 43.8 788.498 43C789.831 42.1667 791.031 41.35 792.098 40.55C793.198 39.7167 794.114 39.0333 794.848 38.5C795.614 37.9333 796.114 37.65 796.348 37.65C797.481 37.65 798.048 38.2167 798.048 39.35C798.048 39.65 797.681 40.2833 796.948 41.25C796.248 42.1833 795.281 43.2667 794.048 44.5C792.814 45.7 791.431 46.9 789.898 48.1C788.398 49.2667 786.831 50.2333 785.198 51C783.598 51.7667 782.048 52.15 780.548 52.15C778.714 52.15 777.314 51.7167 776.348 50.85C775.414 49.9833 774.748 48.8167 774.348 47.35C773.981 45.85 773.781 44.1667 773.748 42.3C772.048 44.7333 770.281 46.9 768.448 48.8C766.648 50.6667 764.864 52.15 763.098 53.25C761.331 54.35 759.681 54.9 758.148 54.9ZM775.848 29.85C772.581 31.4167 769.648 33.2167 767.048 35.25C764.448 37.25 762.381 39.35 760.848 41.55C759.348 43.75 758.598 45.8667 758.598 47.9C758.598 48.4667 758.864 48.75 759.398 48.75C760.031 48.75 760.864 48.3833 761.898 47.65C762.964 46.9167 764.114 45.95 765.348 44.75C766.581 43.5167 767.814 42.15 769.048 40.65C770.281 39.1167 771.431 37.55 772.498 35.95C773.564 34.35 774.414 32.8167 775.048 31.35C775.281 30.8167 775.548 30.3167 775.848 29.85ZM801.448 66.75C799.582 66.75 797.882 66.6333 796.348 66.4C794.815 66.2 793.315 65.8667 791.848 65.4C790.382 64.9333 788.798 64.3167 787.098 63.55C786.398 63.2167 785.815 62.8667 785.348 62.5C784.882 62.1333 784.648 61.5833 784.648 60.85C784.648 59.7833 784.982 58.9667 785.648 58.4C786.282 57.8667 787.165 57.6 788.298 57.6C788.898 57.6 789.665 57.8 790.598 58.2C791.532 58.6333 792.598 59.1167 793.798 59.65C795.032 60.2167 796.398 60.7 797.898 61.1C799.398 61.5333 801.015 61.75 802.748 61.75C804.515 61.75 806.165 61.0167 807.698 59.55C809.232 58.0833 810.465 56.0167 811.398 53.35C812.365 50.7167 812.848 47.6 812.848 44C812.848 43.1667 812.832 42.2667 812.798 41.3C812.765 40.3 812.732 39.25 812.698 38.15C811.498 40.4167 810.198 42.5333 808.798 44.5C807.398 46.4667 805.948 48.0667 804.448 49.3C802.982 50.5 801.498 51.1 799.998 51.1C798.165 51.1 796.832 50.6667 795.998 49.8C795.198 48.9 794.798 47.4833 794.798 45.55C794.798 43.9167 794.915 42.1333 795.148 40.2C795.415 38.2333 795.765 36.25 796.198 34.25C796.632 32.25 797.132 30.35 797.698 28.55C798.298 26.7167 798.932 25.1333 799.598 23.8C800.098 22.8333 800.865 22.35 801.898 22.35C802.565 22.35 803.232 22.6667 803.898 23.3C804.598 23.9333 804.948 24.7833 804.948 25.85C804.948 26.45 804.798 27.3167 804.498 28.45C804.198 29.5833 803.832 30.8667 803.398 32.3C802.998 33.7 802.582 35.1833 802.148 36.75C801.715 38.2833 801.348 39.8 801.048 41.3C800.748 42.7667 800.598 44.1 800.598 45.3C800.598 45.4333 800.698 45.5 800.898 45.5C801.298 45.5 801.832 45.1667 802.498 44.5C803.198 43.8 803.965 42.9 804.798 41.8C805.665 40.6667 806.532 39.4333 807.398 38.1C808.298 36.7333 809.165 35.3833 809.998 34.05C810.832 32.7167 811.582 31.5 812.248 30.4C812.148 29.8667 812.082 29.4 812.048 29C812.048 28.5667 812.048 28.2 812.048 27.9C812.048 26.5333 812.282 25.4 812.748 24.5C813.248 23.6 814.215 23.15 815.648 23.15C816.582 23.15 817.298 23.5 817.798 24.2C818.298 24.8667 818.548 25.8167 818.548 27.05C818.548 27.5833 818.465 28.2 818.298 28.9C818.132 29.5667 817.798 30.6333 817.298 32.1L817.848 30.55C818.148 33.55 818.398 36.2167 818.598 38.55C818.832 40.8833 818.948 43.2 818.948 45.5C818.948 49.8333 818.215 53.5833 816.748 56.75C815.315 59.95 813.282 62.4167 810.648 64.15C808.048 65.8833 804.982 66.75 801.448 66.75ZM832.992 55.55C831.559 55.55 830.542 55.35 829.942 54.95C829.376 54.55 829.092 53.9667 829.092 53.2C829.092 52.5333 829.326 51.9667 829.792 51.5C830.259 51 831.292 50.5 832.892 50C834.759 49.4333 836.526 48.7833 838.192 48.05C839.892 47.2833 841.276 46.45 842.342 45.55C843.442 44.65 843.992 43.7 843.992 42.7C843.992 42.0333 843.759 41.55 843.292 41.25C842.859 40.95 842.342 40.8 841.742 40.8C841.242 40.8 840.509 40.8833 839.542 41.05C838.609 41.1833 837.576 41.3667 836.442 41.6C835.309 41.8 834.209 41.9833 833.142 42.15C832.109 42.2833 831.226 42.35 830.492 42.35C828.759 42.35 827.476 41.9667 826.642 41.2C825.809 40.4 825.392 39.3833 825.392 38.15C825.392 37.4833 825.742 36.5667 826.442 35.4C827.142 34.2333 828.076 32.95 829.242 31.55C830.409 30.15 831.709 28.75 833.142 27.35C834.576 25.95 836.026 24.6667 837.492 23.5C838.992 22.3 840.409 21.35 841.742 20.65C843.076 19.9167 844.209 19.55 845.142 19.55C846.209 19.55 847.059 19.8833 847.692 20.55C848.359 21.2167 848.692 22.1167 848.692 23.25C848.692 23.7833 848.642 24.3667 848.542 25C848.442 25.6 848.192 26.15 847.792 26.65C847.392 27.1167 846.776 27.45 845.942 27.65C845.109 27.85 843.976 27.8167 842.542 27.55C841.409 28.3833 840.226 29.3 838.992 30.3C837.792 31.2667 836.659 32.2833 835.592 33.35C834.526 34.3833 833.642 35.4 832.942 36.4C834.176 36 835.576 35.6833 837.142 35.45C838.709 35.1833 840.292 35.05 841.892 35.05C843.826 35.05 845.392 35.4 846.592 36.1C847.826 36.7667 848.726 37.6667 849.292 38.8C849.892 39.9333 850.192 41.1833 850.192 42.55C850.192 44.0833 849.692 45.6167 848.692 47.15C847.692 48.6833 846.359 50.0833 844.692 51.35C843.026 52.6167 841.176 53.6333 839.142 54.4C837.109 55.1667 835.059 55.55 832.992 55.55Z" fill="white"/>
<path fill-rule="evenodd" clip-rule="evenodd" d="M816.065 91.857C772.36 88.089 759.848 87.1808 735.509 86.0109C710.287 84.7984 692.203 84.2807 663.461 83.9486C656.799 83.8716 649.671 83.7206 641.321 83.4793C610.65 82.5929 604.667 82.569 594.653 83.2921C589.692 83.6506 585.415 83.8169 583.034 83.7444C580.918 83.6798 580.528 83.7306 580.494 84.0749C580.465 84.3793 583.803 84.972 585.658 84.9917C586.323 84.999 588.123 85.0332 589.658 85.0683C591.193 85.1031 594.577 85.1253 597.177 85.1174C603.301 85.0988 606.231 85.1898 616.7 85.7236C634.299 86.6211 647.61 87.1345 663.981 87.5472C670.014 87.6992 678.025 87.9011 681.782 87.9958C710.281 88.7137 745.027 90.2586 766.206 91.7498C791.907 93.5589 871.549 100.676 870.157 101.038C869.605 101.182 860.357 101.754 854.824 101.986C849.742 102.199 841.266 102.396 830.848 102.543C825.908 102.612 819.127 102.714 815.779 102.769C803.203 102.975 799.063 103.016 791.931 103.005C759.072 102.952 737.303 103.572 706.909 105.424C688.842 106.525 673.944 108.356 657.209 111.531C647.694 113.335 646.746 113.728 647.488 115.556C647.971 116.745 652.625 117.344 662.121 117.439C679.475 117.614 695.758 118.023 711.508 118.68C721.386 119.092 722.697 119.128 732.769 119.257C736.531 119.306 743.026 119.473 747.202 119.629L754.795 119.914L744.778 118.765C729.599 117.024 713.287 115.459 707.888 115.226C690.012 114.456 680.268 114.252 664.314 114.314C660.511 114.329 657.307 114.299 657.194 114.248C656.1 113.753 681.989 110.381 694.278 109.419C722.017 107.246 750.45 106.375 794.017 106.362C797.996 106.361 805.989 106.29 811.781 106.204C817.572 106.117 826.7 105.983 832.066 105.904C852.719 105.602 858.889 105.342 878.847 103.931C891.629 103.028 891.698 103.016 892.176 101.653C892.702 100.155 891.762 99.3611 888.895 98.8823C886.171 98.4272 834.83 93.4748 816.065 91.857ZM755.624 119.838C755.858 119.908 756.202 119.939 756.389 119.908C756.577 119.877 756.386 119.82 755.965 119.781C755.544 119.742 755.391 119.768 755.624 119.838Z" fill="white"/>
</svg>
