<svg width="82" height="86" viewBox="0 0 82 86" fill="none" xmlns="http://www.w3.org/2000/svg">
<path d="M73.6711 0.573242H8.4803C7.96401 0.573242 7.45632 0.627197 6.94863 0.730612C6.44094 0.838522 5.95046 0.991396 5.47289 1.19822C4.99532 1.40505 4.54356 1.66134 4.11331 1.95809C3.68737 2.25934 3.28724 2.60106 2.92584 2.97875C2.56013 3.36093 2.23314 3.77459 1.94488 4.22421C1.66092 4.67384 1.41998 5.14595 1.22206 5.64503C1.02415 6.14412 0.873566 6.65669 0.774609 7.18725C0.67135 7.71331 0.624023 8.24837 0.624023 8.78792V76.9109C0.624023 77.4504 0.67135 77.9855 0.774609 78.516C0.873566 79.0421 1.02415 79.5547 1.22206 80.0538C1.41998 80.5528 1.66092 81.025 1.94488 81.4746C2.23314 81.9242 2.56013 82.3379 2.92584 82.72C3.28724 83.1022 3.68737 83.4395 4.11331 83.7407C4.54356 84.042 4.99532 84.2937 5.47289 84.5006C5.95046 84.7074 6.44094 84.8603 6.94863 84.9682C7.45632 85.0716 7.96401 85.1255 8.4803 85.1255H73.6711C74.1831 85.1255 74.6951 85.0716 75.2028 84.9682C75.7105 84.8603 76.2009 84.7074 76.6785 84.5006C77.1518 84.2937 77.6078 84.042 78.0338 83.7407C78.464 83.4395 78.8598 83.1022 79.2256 82.72C79.5913 82.3379 79.9183 81.9242 80.2022 81.4746C80.4905 81.025 80.7314 80.5528 80.9293 80.0538C81.1272 79.5547 81.2778 79.0421 81.3768 78.516C81.48 77.9855 81.5274 77.4504 81.5274 76.9109V8.78792C81.5274 8.24837 81.48 7.71331 81.3768 7.18725C81.2778 6.65669 81.1272 6.14412 80.9293 5.64503C80.7314 5.14595 80.4905 4.67384 80.2022 4.22421C79.9183 3.77459 79.5913 3.36093 79.2256 2.97875C78.8598 2.60106 78.464 2.25934 78.0338 1.95809C77.6078 1.66134 77.1518 1.40505 76.6785 1.19822C76.2009 0.991396 75.7105 0.838522 75.2028 0.730612C74.6951 0.627197 74.1831 0.573242 73.6711 0.573242ZM57.8639 63.2917C57.8682 63.4535 57.8424 63.6109 57.7821 63.7593C57.7262 63.9122 57.6445 64.0426 57.5326 64.155C57.425 64.2719 57.3003 64.3573 57.154 64.4157C57.012 64.4787 56.8614 64.5057 56.7065 64.5012H25.703C25.5481 64.5012 25.4019 64.4697 25.2599 64.4112C25.1179 64.3483 24.9931 64.2584 24.8856 64.146C24.778 64.0336 24.6963 63.9032 24.636 63.7548C24.5758 63.6064 24.5457 63.4535 24.5457 63.2917V56.3764C24.5371 56.0257 24.6532 55.7245 24.8942 55.4727L41.0757 39.8302C42.2804 38.7421 43.3474 37.5236 44.281 36.1747C44.8576 35.3249 45.1458 34.3807 45.1501 33.3375C45.1974 32.1775 44.8403 31.1703 44.0788 30.3205C43.2269 29.5202 42.2245 29.1245 41.0757 29.1425C39.7419 29.12 38.6061 29.6011 37.6639 30.5903C36.5667 31.7189 35.8912 33.0768 35.6417 34.6684C35.5858 35.0236 35.4008 35.2844 35.0953 35.4508C34.7941 35.5902 34.4972 35.5902 34.2004 35.4508L25.2427 32.7665C24.9673 32.6766 24.7522 32.5102 24.6016 32.2584C24.4467 32.0066 24.3908 31.7324 24.4338 31.4356C24.6833 29.5472 25.247 27.7622 26.1247 26.0896C27.0024 24.4125 28.1296 22.9557 29.5193 21.7102C31.0639 20.3029 32.8021 19.2328 34.7296 18.5044C36.6571 17.7715 38.6491 17.4342 40.7014 17.4837C42.8483 17.3803 44.9479 17.6636 47.0002 18.3425C49.0524 19.0169 50.9283 20.0376 52.6321 21.4089C53.4108 22.0969 54.1035 22.8702 54.7102 23.7245C55.3168 24.5788 55.8245 25.4916 56.2246 26.4717C56.6291 27.4474 56.9216 28.4591 57.098 29.5067C57.2787 30.5544 57.339 31.611 57.2873 32.6721C57.3218 35.4463 56.6549 38.0227 55.291 40.4057C53.6991 43.081 51.7716 45.4685 49.5128 47.5592L43.9669 52.7254H56.7366C56.8915 52.721 57.0421 52.7479 57.1841 52.8064C57.3261 52.8693 57.4551 52.9548 57.5627 53.0672C57.6703 53.1841 57.7563 53.3145 57.8122 53.4628C57.8682 53.6157 57.8983 53.7686 57.894 53.9305L57.8639 63.2917Z" fill="#FE9C0B"/>
</svg>
