<svg width="400" height="111" viewBox="0 0 400 111" fill="none" xmlns="http://www.w3.org/2000/svg">
<mask id="mask0_2925_14296" style="mask-type:luminance" maskUnits="userSpaceOnUse" x="0" y="11" width="82" height="85">
<path d="M0.624023 11.2617H81.5274V95.814H0.624023V11.2617Z" fill="white"/>
</mask>
<g mask="url(#mask0_2925_14296)">
<path d="M73.6711 11.2617H8.4803C7.96401 11.2617 7.45632 11.3157 6.94863 11.4191C6.44094 11.527 5.95046 11.6799 5.47289 11.8867C4.99532 12.0935 4.54356 12.3498 4.11331 12.6466C3.68737 12.9478 3.28724 13.2895 2.92584 13.6672C2.56013 14.0494 2.23314 14.4631 1.94488 14.9127C1.66092 15.3623 1.41998 15.8344 1.22206 16.3335C1.02415 16.8326 0.873566 17.3452 0.774609 17.8757C0.67135 18.4018 0.624023 18.9368 0.624023 19.4764V87.5993C0.624023 88.1389 0.67135 88.674 0.774609 89.2045C0.873566 89.7306 1.02415 90.2432 1.22206 90.7422C1.41998 91.2413 1.66092 91.7134 1.94488 92.1631C2.23314 92.6127 2.56013 93.0263 2.92584 93.4085C3.28724 93.7907 3.68737 94.1279 4.11331 94.4292C4.54356 94.7304 4.99532 94.9822 5.47289 95.189C5.95046 95.3959 6.44094 95.5487 6.94863 95.6567C7.45632 95.7601 7.96401 95.814 8.4803 95.814H73.6711C74.1831 95.814 74.6951 95.7601 75.2028 95.6567C75.7105 95.5487 76.2009 95.3959 76.6785 95.189C77.1518 94.9822 77.6078 94.7304 78.0338 94.4292C78.464 94.1279 78.8598 93.7907 79.2256 93.4085C79.5913 93.0263 79.9183 92.6127 80.2022 92.1631C80.4905 91.7134 80.7314 91.2413 80.9293 90.7422C81.1272 90.2432 81.2778 89.7306 81.3768 89.2045C81.48 88.674 81.5274 88.1389 81.5274 87.5993V19.4764C81.5274 18.9368 81.48 18.4018 81.3768 17.8757C81.2778 17.3452 81.1272 16.8326 80.9293 16.3335C80.7314 15.8344 80.4905 15.3623 80.2022 14.9127C79.9183 14.4631 79.5913 14.0494 79.2256 13.6672C78.8598 13.2895 78.464 12.9478 78.0338 12.6466C77.6078 12.3498 77.1518 12.0935 76.6785 11.8867C76.2009 11.6799 75.7105 11.527 75.2028 11.4191C74.6951 11.3157 74.1831 11.2617 73.6711 11.2617ZM57.8639 73.9802C57.8682 74.142 57.8424 74.2994 57.7821 74.4478C57.7262 74.6006 57.6444 74.731 57.5326 74.8434C57.425 74.9603 57.3003 75.0458 57.154 75.1042C57.012 75.1672 56.8614 75.1941 56.7065 75.1897H25.703C25.5481 75.1897 25.4019 75.1582 25.2599 75.0997C25.1179 75.0368 24.9931 74.9469 24.8856 74.8344C24.778 74.722 24.6963 74.5916 24.636 74.4433C24.5758 74.2949 24.5457 74.142 24.5457 73.9802V67.0649C24.5371 66.7142 24.6532 66.4129 24.8942 66.1611L41.0757 50.5186C42.2804 49.4305 43.3474 48.212 44.281 46.8632C44.8576 46.0134 45.1458 45.0692 45.1501 44.026C45.1974 42.866 44.8403 41.8588 44.0788 41.009C43.2269 40.2087 42.2245 39.813 41.0757 39.831C39.7419 39.8085 38.6061 40.2896 37.6639 41.2788C36.5667 42.4074 35.8912 43.7652 35.6417 45.3569C35.5858 45.7121 35.4008 45.9729 35.0953 46.1393C34.7941 46.2786 34.4972 46.2786 34.2004 46.1393L25.2427 43.455C24.9673 43.3651 24.7522 43.1987 24.6016 42.9469C24.4467 42.6951 24.3908 42.4209 24.4338 42.1241C24.6833 40.2357 25.247 38.4506 26.1247 36.778C27.0024 35.1009 28.1296 33.6441 29.5193 32.3987C31.0639 30.9913 32.8021 29.9212 34.7296 29.1928C36.6571 28.4599 38.6491 28.1227 40.7014 28.1722C42.8483 28.0688 44.9479 28.352 47.0002 29.031C49.0524 29.7054 50.9283 30.7261 52.6321 32.0974C53.4108 32.7854 54.1035 33.5587 54.7102 34.413C55.3168 35.2673 55.8245 36.18 56.2246 37.1602C56.6291 38.1359 56.9216 39.1476 57.098 40.1952C57.2787 41.2428 57.339 42.2995 57.2873 43.3606C57.3218 46.1348 56.6549 48.7111 55.291 51.0942C53.6991 53.7694 51.7716 56.157 49.5128 58.2477L43.9669 63.4139H56.7366C56.8915 63.4094 57.0421 63.4364 57.1841 63.4949C57.3261 63.5578 57.4551 63.6432 57.5627 63.7556C57.6703 63.8725 57.7563 64.0029 57.8122 64.1513C57.8682 64.3042 57.8983 64.4571 57.894 64.6189L57.8639 73.9802Z" fill="#FE9C0B"/>
</g>
<path d="M113.592 79.9732L114.81 81.403L116.484 82.4372L119.375 82.3562L121.049 81.7223L122.266 80.0541L122.95 78.7008L123.411 76.9517L124.168 75.5174L124.551 74.1685L125.235 72.4959L125.614 71.2235L127.976 65.3424L128.432 63.6697L129.8 60.6483L130.789 57.5458L131.551 57.7841L132.312 59.1375L132.769 60.8101L134.064 63.5124L138.4 75.7602L139.541 78.3815L139.997 79.8923L141.442 81.5649L143.193 82.5181L144.639 82.4372L145.934 82.1989L147.758 81.5649L148.898 80.1306L149.359 78.6198L150.043 77.19L154.608 63.355L155.292 62.0016L157.805 55.2437L158.411 53.0136L159.095 51.5838L159.401 50.2304L164.271 36.7146L164.65 34.9656L165.411 33.5313L166.857 28.6798L166.401 26.7734L164.882 26.3732L163.359 26.1349L160.696 26.2968L157.65 26.1349L156.053 26.2968L154.608 26.0585L153.007 26.8543L151.717 28.5224L151.334 30.0332L150.65 31.3865L146.463 45.3789L146.162 46.9706L145.172 50.3113L144.639 53.6521L144.183 55.1628L143.421 55.0819L141.898 50.5496L141.52 48.958L138.246 39.9744L137.488 36.9529L136.877 35.4422L135.965 32.2588L135.354 30.9099L134.748 29.4756L133.681 27.8885L132.084 26.9307H130.411L128.888 27.7266L127.593 29.3183L125.084 37.1912L123.94 40.0509L121.204 49.2772L120.442 50.4687L120.137 52.1413L118.996 55.1628L118.385 55.2437L118.084 53.3328L113.214 35.9997L112.603 34.6463L111.691 31.5439L111.385 29.9522L110.779 28.3651L109.406 27.0926L107.961 26.3732L101.873 26.2968L100.504 25.9775L99.1362 26.2158L97.5357 26.2968L95.9395 26.7734L95.634 28.6034L96.017 30.7481L99.2094 39.8126L99.8978 41.1659L103.017 50.073L103.473 51.8221L105.603 57.7841L106.287 59.0566L112.452 77.1091L113.136 78.6198L113.592 79.9732Z" fill="#00696D"/>
<path d="M168.533 79.5732L168.911 81.2459L170.434 81.6415H177.129L179.108 81.8798L180.859 81.0885L182.227 79.6542L183.522 76.9519L184.818 75.4412L186.642 74.6453L188.165 74.8027L192.424 74.7263L194.025 74.9646L195.776 74.7263H197.144L198.74 74.8836L202.32 74.7263L204.828 75.5985L206.429 76.871L206.807 78.3008L207.646 79.7351L208.937 81.0075L210.916 81.8034L212.284 81.6415L214.948 81.8798L219.667 81.7225L221.036 81.2459L221.341 79.5732L220.885 77.5859L220.351 76.1561L219.362 74.8027L218.906 73.2155L218.144 72.0195L217.688 70.5088L216.393 67.6491L215.864 66.1384L215.102 64.785L214.035 61.84L213.201 60.572L212.59 58.9803L211.906 57.627L211.372 56.0353L210.688 54.8438L210.232 53.2521L209.393 51.8223L208.786 50.4689L208.025 49.12L207.646 47.6093L206.123 44.8261L205.667 43.3153L204.295 40.2938L203.916 39.0214L202.776 36.2382L201.253 33.2932L200.035 30.2717L199.351 29.0801L198.895 27.5694L197.523 26.0587L194.937 25.3438L192.502 26.1351L191.056 27.5694L190.6 28.9992L187.326 36.1573L186.491 37.5871L182.227 47.6093L181.849 48.9581L181.01 50.3925L179.792 53.2521L178.652 55.3204L178.119 56.8311L177.056 58.8994L176.6 60.572L175.911 61.84L175.382 63.4316L173.248 67.5682L171.045 73.3729L170.129 74.6453L169.445 76.237L168.533 79.5732ZM192.046 62.0828L190.6 61.4443L190.372 59.8526L193.414 52.6181L194.098 51.3457L195.087 50.5498L196.004 51.1883L196.993 54.2862L197.828 55.6396L198.134 56.912L198.895 58.5037L199.424 59.9335L199.274 61.3634L197.979 62.0018L192.046 62.0828Z" fill="#00696D"/>
<path d="M240.289 79.4965L241.124 80.8454L242.57 81.6412L245.31 81.8031L246.834 81.6412L248.43 81.7221L250.559 81.6412L252.844 80.8454L253.606 79.2582V77.9048L253.451 76.2367L253.528 74.7259L253.451 73.2916L253.834 68.4402L253.606 66.7721L253.834 62.1589L253.528 60.7291L253.911 58.4225L256.574 53.571L257.181 52.0603L258.02 50.7069L259.922 48.0856L268.673 32.9736L269.585 31.7821L270.118 30.3523L271.181 28.4414L270.953 26.535L269.507 25.8965L267.989 26.1348L265.02 25.8965L263.419 26.1348H260.528L259.083 25.9774L257.181 26.7733L255.585 28.284L254.29 30.9863L253.3 32.497L252.844 34.0078L251.093 36.6336L249.953 39.4977L247.44 43.7916L246.377 43.949L244.626 41.0849L243.942 39.6551L243.486 38.0634L239.679 31.0672L238.844 29.7138L238.233 28.1266L236.559 26.8542L234.658 25.9774L224.611 26.1348L222.938 26.6159L222.787 28.3649L223.549 30.2714L231.766 43.8681L232.373 45.2214L239.149 56.3542L239.756 58.4225L240.135 60.7291L240.061 67.0104L240.212 68.602L240.289 70.1128L240.135 71.5426L240.061 74.5641L240.44 77.8239L240.289 79.4965Z" fill="#00696D"/>
<path d="M293.25 82.3563L295.457 82.5991L297.892 82.5182L305.348 81.0074L309.306 78.7818L311.742 77.0327L313.871 74.4878L315.394 71.9429L316.001 70.5086L316.457 68.9215L316.685 67.4871L316.763 62.5592L316.535 60.9676L316.152 59.4568L314.633 56.5163L312.804 54.0478L311.514 52.9372L307.478 51.0263L301.239 49.4346L293.555 48.405L290.358 47.209L289.218 46.575L288.001 45.3026L287.923 43.1533L288.151 41.0851L288.99 39.9745L290.281 38.9403L291.348 38.4637L292.716 38.1445L297.587 37.9871L299.26 38.6211L300.4 39.5743L302.913 42.3575L305.271 43.1533L310.296 43.3152L311.664 43.1533L313.11 43.3152L314.555 42.3575L315.24 40.8468L314.633 37.7488L313.415 34.8847L312.426 33.6123L311.664 32.3398L310.675 31.1483L305.804 27.6457L301.618 26.135L300.022 25.8202L298.654 25.6584L296.98 25.2627L292.716 25.3436L286.706 26.6161L285.338 27.1691L284.12 27.965L282.902 28.4416L281.379 29.3993L280.312 30.4289L278.944 31.3866L278.105 32.7355L277.12 33.7696L276.586 35.2039L275.825 36.4764L274.758 41.0851L274.835 46.4131L275.369 48.6433L276.358 51.4265L278.26 54.0478L280.39 56.1161L283.053 57.7842L287.39 59.2994L290.13 59.9334L296.369 60.41L297.737 60.6483L299.26 60.7293L302.001 61.9208L303.064 62.874L303.447 64.9423L302.99 67.0105L301.773 68.1256L300.555 68.8405L297.737 69.7128L295.607 69.7937L293.327 69.6364L291.576 69.1598L290.436 68.6022L289.063 67.7254L287.923 66.6149L286.783 65.0232L285.26 64.3847L279.478 64.2273L277.954 64.3847L276.431 64.3083L274.913 65.0232L274.379 66.6913L274.53 68.4404L274.835 69.8747L276.053 73.0535L277.954 75.5175L280.162 77.8241L281.457 78.7008L286.934 81.3267L288.607 81.565L290.053 82.118L293.25 82.3563Z" fill="#00696D"/>
<path d="M323.571 83.4713L324.333 83.5027L324.669 83.4083H324.974L325.31 83.2824L325.705 83.0261L325.946 82.9002L326.222 82.644L326.497 82.3292L326.708 82.01L326.983 81.0253L327.013 80.2924L326.889 79.9102L326.828 79.5595L326.648 79.1459L326.433 78.8266L326.222 78.6378L326.007 78.3185L325.675 78.1297L325.4 77.9364L325.034 77.8734L324.638 77.716L324.303 77.6846L323.602 77.716L322.935 77.8419L322.539 77.9678L322.294 78.0982L321.687 78.6378L321.201 79.1773L321.106 79.4966L320.956 79.8473L320.986 81.3715L321.076 81.7222L321.231 82.0729L321.412 82.3292L321.747 82.6125L321.898 82.8688L322.599 83.2824L322.874 83.3768L323.27 83.4713H323.571Z" fill="#00696D"/>
<path d="M339.582 83.665L341.41 83.7595L344.362 83.121L346.035 82.3611L346.491 82.0419L347.042 81.6912L347.558 81.309L347.954 80.8953L348.29 80.3558L348.806 79.9421L349.718 78.2875L349.994 77.7165L350.144 77.1095L350.359 76.4755L350.45 75.873L350.269 75.2975L349.507 74.9468L346.25 74.9153L345.579 75.2345L344.973 75.837L344.727 76.3811L343.57 77.685L342.537 78.2246L341.926 78.4134L341.29 78.4808L339.582 78.4494L337.938 77.8109L337.362 77.5231L336.966 77.078L335.839 75.5538L335.598 75.0097L335.232 73.7732L335.142 72.276L335.172 71.2598L335.382 70.6843L335.413 70.0503L335.598 69.4793L336.114 68.3328L336.875 67.3481L337.878 66.5837L338.459 66.3274L339.521 66.0082L341.41 66.0756L342.568 66.296L343.204 66.5208L344.086 67.2806L344.547 67.7932L344.818 68.3328L345.368 68.9353L346.035 69.223L349.112 69.286L349.718 69.223L350.204 68.9353L350.389 68.2698L350.144 67.6313L350.054 67.0603L349.568 65.8508L348.44 64.2277L346.857 62.7349L346.19 62.2583L344.452 61.431L343.265 61.0803L341.746 60.8555H338.975L338.459 60.9229L337.878 61.1118L336.69 61.368L336.114 61.5884L335.658 61.8761L335.107 62.0964L332.977 63.5307L332.612 64.0388L331.79 64.8347L331.424 65.3742L330.026 68.2383L329.479 72.213L329.6 73.2292V74.5016L329.905 75.7426L330.146 76.3496L330.241 76.9206L330.542 77.4917L330.757 78.0357L331.975 79.8792L333.068 80.9898L333.588 81.3405L334.044 81.7226L336.114 82.9007L336.721 83.121L337.181 83.2514L337.818 83.4717L338.459 83.5346L339.005 83.665H339.582Z" fill="#00696D"/>
<path d="M362.99 83.7271L364.694 83.6957L366.518 83.4394L368.803 82.6435L369.81 82.0725L370.266 81.6903L370.842 81.4026L371.694 80.6427L372.09 80.0672L372.516 79.6221L373.854 77.4908L374.314 76.2813L374.555 75.0763L374.585 74.5008L374.74 73.8668L374.77 73.1969L374.891 72.2752L374.801 70.6835L374.585 69.3796L373.824 66.9965L373.247 65.8185L372.576 64.8653L371.724 63.8761L370.842 63.0848L370.141 62.5722L369.229 62.1586L368.773 61.8123L366.428 61.048L364.664 60.7287L363.842 60.6973L360.615 61.1739L358.331 62.0641L357.875 62.4148L357.328 62.7026L356.291 63.4984L354.803 65.3104L353.86 66.9965L353.4 68.206L352.884 70.652L352.793 73.2284L352.884 73.8983L353.034 74.4693L353.099 75.0763L353.37 76.2813L354.773 79.1769L355.138 79.5591L355.534 80.0672L355.99 80.5123L356.326 80.926L357.328 81.7533L359.703 83.0257L360.585 83.345L361.256 83.4079L362.349 83.6642L362.99 83.7271ZM364.694 78.0978H363.02L362.349 77.9989L361.256 77.5223L360.766 77.239L359.944 76.5376L359.548 76.0925L359.122 75.49L358.972 74.9774L358.696 74.4064L358.455 73.2284V71.2905L358.606 70.7149L358.696 70.1124L358.942 69.5414L359.122 68.9659L359.854 67.9497L361.377 66.8661L361.773 66.7088L362.96 66.3895L363.812 66.3266L365.271 66.5199L365.821 66.6458L366.368 66.9021L367.31 67.599L368.497 68.903L368.863 70.1124L369.138 70.7149L369.229 71.2905L369.169 73.2284L368.923 74.4064L368.713 74.9774L368.377 75.5529L368.196 76.0295L367.77 76.5376L366.307 77.5897L365.761 77.7471L365.301 77.9674L364.694 78.0978Z" fill="#00696D"/>
<path d="M378.271 82.4233L378.542 82.9944L379.274 83.3451L382.621 83.2821L383.533 82.9944L383.869 82.4863L383.929 81.8838L383.899 81.2138L383.809 80.5439L383.899 76.25L383.778 74.4065L384.054 73.9614L384.51 74.0873L385.271 75.0764L386.975 76.7625L387.371 77.3021L388.373 78.1609H389.075L389.591 77.7787L392.147 75.0764L392.543 74.5324L392.969 74.0873L393.334 74.0243L393.579 74.4065L393.67 75.045L393.579 75.6475L393.61 76.2185L393.579 76.857L393.67 78.035L393.579 82.4233L393.885 83.0888L394.552 83.3451L398.205 83.3765L398.785 82.9944L399.117 82.3289L399.211 81.6904L399.087 77.8731L399.151 77.2706L399.087 76.0296L399.181 75.3912L399.151 74.7572L399.211 74.0873L399.151 73.4533L399.241 72.8823L399.151 63.8762L399.211 63.2108L399.151 62.6712L399.181 62.0013L398.846 61.3988L398.235 61.0166L397.323 61.2999L396.561 61.745L395.864 62.6398L394.126 64.5147L393.855 64.9913L389.35 69.9867L388.679 70.207L388.133 70.0181L387.737 69.6045L387.371 69.0649L386.885 68.6513L386.519 68.1387L384.42 65.8816L383.688 64.9284L383.168 64.4517L382.776 64.0066L382.44 63.53L382.014 63.1164L381.679 62.6712L381.008 61.9383L380.126 61.2684L379.244 61.0166L378.633 61.3673L378.301 62.0013L378.237 62.6712L378.332 76.6951L378.207 77.3021L378.332 81.8163L378.271 82.4233Z" fill="#00696D"/>
</svg>
