<svg width="168" height="38" viewBox="0 0 168 38" fill="none" xmlns="http://www.w3.org/2000/svg">
<g clip-path="url(#clip0_2372_3565)">
<mask id="mask0_2372_3565" style="mask-type:luminance" maskUnits="userSpaceOnUse" x="0" y="0" width="35" height="38">
<path d="M0.261536 0.626953H34.1706V37.6274H0.261536V0.626953Z" fill="white"/>
</mask>
<g mask="url(#mask0_2372_3565)">
<path d="M30.8778 0.626953H3.55434C3.33795 0.626953 3.12516 0.650564 2.91237 0.695819C2.69958 0.743041 2.49401 0.809939 2.29384 0.900448C2.09368 0.990957 1.90433 1.10311 1.724 1.23297C1.54548 1.3648 1.37777 1.51433 1.2263 1.67961C1.07302 1.84686 0.935966 2.02788 0.815146 2.22463C0.696129 2.42139 0.595144 2.62799 0.512193 2.84639C0.429242 3.06479 0.366127 3.2891 0.324651 3.52127C0.281372 3.75148 0.261536 3.98562 0.261536 4.22174V34.0326C0.261536 34.2688 0.281372 34.5029 0.324651 34.7351C0.366127 34.9653 0.429242 35.1896 0.512193 35.408C0.595144 35.6264 0.696129 35.833 0.815146 36.0298C0.935966 36.2265 1.07302 36.4075 1.2263 36.5748C1.37777 36.742 1.54548 36.8896 1.724 37.0214C1.90433 37.1532 2.09368 37.2634 2.29384 37.3539C2.49401 37.4444 2.69958 37.5113 2.91237 37.5586C3.12516 37.6038 3.33795 37.6274 3.55434 37.6274H30.8778C31.0924 37.6274 31.307 37.6038 31.5198 37.5586C31.7325 37.5113 31.9381 37.4444 32.1383 37.3539C32.3366 37.2634 32.5278 37.1532 32.7063 37.0214C32.8867 36.8896 33.0526 36.742 33.2058 36.5748C33.3591 36.4075 33.4962 36.2265 33.6152 36.0298C33.736 35.833 33.837 35.6264 33.9199 35.408C34.0029 35.1896 34.066 34.9653 34.1075 34.7351C34.1508 34.5029 34.1706 34.2688 34.1706 34.0326V4.22174C34.1706 3.98562 34.1508 3.75148 34.1075 3.52127C34.066 3.2891 34.0029 3.06479 33.9199 2.84639C33.837 2.62799 33.736 2.42139 33.6152 2.22463C33.4962 2.02788 33.3591 1.84686 33.2058 1.67961C33.0526 1.51433 32.8867 1.3648 32.7063 1.23297C32.5278 1.10311 32.3366 0.990957 32.1383 0.900448C31.9381 0.809939 31.7325 0.743041 31.5198 0.695819C31.307 0.650564 31.0924 0.626953 30.8778 0.626953ZM24.2525 28.0728C24.2543 28.1437 24.2435 28.2125 24.2182 28.2775C24.1948 28.3444 24.1605 28.4014 24.1136 28.4506C24.0686 28.5018 24.0163 28.5391 23.955 28.5647C23.8955 28.5923 23.8323 28.6041 23.7674 28.6021H10.7729C10.708 28.6021 10.6467 28.5883 10.5872 28.5628C10.5277 28.5352 10.4754 28.4959 10.4303 28.4467C10.3852 28.3975 10.3509 28.3404 10.3257 28.2755C10.3004 28.2106 10.2878 28.1437 10.2878 28.0728V25.0467C10.2842 24.8932 10.3329 24.7614 10.4339 24.6512L17.2161 17.806C17.721 17.3298 18.1682 16.7966 18.5595 16.2063C18.8012 15.8344 18.922 15.4212 18.9238 14.9648C18.9436 14.4571 18.7939 14.0164 18.4748 13.6445C18.1177 13.2943 17.6975 13.1211 17.2161 13.129C16.657 13.1192 16.181 13.3297 15.7861 13.7626C15.3262 14.2564 15.0431 14.8506 14.9385 15.5472C14.9151 15.7026 14.8375 15.8167 14.7095 15.8895C14.5833 15.9505 14.4588 15.9505 14.3344 15.8895L10.58 14.7149C10.4645 14.6755 10.3744 14.6027 10.3113 14.4925C10.2464 14.3824 10.2229 14.2623 10.2409 14.1325C10.3455 13.3061 10.5818 12.525 10.9496 11.793C11.3175 11.0591 11.79 10.4216 12.3724 9.87658C13.0198 9.26073 13.7483 8.79244 14.5562 8.47369C15.3641 8.15297 16.199 8.00541 17.0592 8.02705C17.959 7.98179 18.839 8.10575 19.6992 8.40286C20.5594 8.698 21.3456 9.14464 22.0597 9.74475C22.3861 10.0458 22.6764 10.3842 22.9307 10.7581C23.185 11.1319 23.3977 11.5313 23.5654 11.9603C23.735 12.3872 23.8576 12.8299 23.9315 13.2884C24.0073 13.7468 24.0325 14.2092 24.0109 14.6736C24.0253 15.8876 23.7458 17.015 23.1741 18.0578C22.5069 19.2285 21.699 20.2733 20.7523 21.1882L18.4279 23.449H23.78C23.845 23.447 23.9081 23.4588 23.9676 23.4844C24.0271 23.512 24.0812 23.5493 24.1263 23.5985C24.1714 23.6497 24.2074 23.7068 24.2309 23.7717C24.2543 23.8386 24.2669 23.9055 24.2651 23.9763L24.2525 28.0728Z" fill="#FE9C0B"/>
</g>
<path d="M47.6101 30.6956L48.1204 31.3213L48.8219 31.7739L50.0337 31.7385L50.7352 31.461L51.2455 30.7311L51.5322 30.1388L51.7252 29.3734L52.0426 28.7458L52.2031 28.1555L52.4898 27.4235L52.6485 26.8667L53.6385 24.2931L53.8296 23.5612L54.4031 22.239L54.8178 20.8813L55.137 20.9856L55.4562 21.5778L55.6473 22.3098L56.1901 23.4923L58.0078 28.852L58.4857 29.9991L58.6769 30.6602L59.2828 31.3922L60.0167 31.8093L60.6226 31.7739L61.1654 31.6696L61.93 31.3922L62.4079 30.7645L62.6008 30.1034L62.8875 29.4777L64.8008 23.4234L65.0876 22.8312L66.1407 19.8739L66.3949 18.898L66.6817 18.2723L66.8097 17.6801L68.851 11.7655L69.0097 11.0001L69.3289 10.3724L69.9348 8.24941L69.7437 7.41516L69.1071 7.24004L68.4687 7.13576L67.3525 7.20659L66.0758 7.13576L65.4067 7.20659L64.8008 7.10231L64.13 7.45057L63.589 8.18055L63.4285 8.84166L63.1418 9.4339L61.3872 15.557L61.261 16.2536L60.8462 17.7155L60.6226 19.1774L60.4315 19.8385L60.1123 19.8031L59.4739 17.8198L59.3152 17.1232L57.9429 13.192L57.6255 11.8698L57.3695 11.2087L56.9872 9.81561L56.7311 9.22534L56.4769 8.59768L56.0296 7.90312L55.3606 7.48402H54.6591L54.0208 7.83229L53.478 8.52881L52.4267 11.9741L51.947 13.2254L50.8001 17.2629L50.4809 17.7843L50.3529 18.5163L49.875 19.8385L49.6189 19.8739L49.4927 19.0377L47.4514 11.4526L47.1953 10.8604L46.813 9.50277L46.685 8.80624L46.4307 8.11168L45.8555 7.55486L45.2496 7.24004L42.6979 7.20659L42.1245 7.06689L41.551 7.17118L40.8802 7.20659L40.2112 7.41516L40.0831 8.21597L40.2436 9.1545L41.5817 13.1212L41.8702 13.7134L43.1776 17.6112L43.3687 18.3766L44.2614 20.9856L44.5481 21.5424L47.1322 29.4423L47.4189 30.1034L47.6101 30.6956Z" fill="white"/>
<path d="M70.6372 30.5206L70.7959 31.2526L71.4343 31.4257H74.2402L75.0697 31.53L75.8036 31.1837L76.3771 30.556L76.9199 29.3735L77.4627 28.7124L78.2273 28.3641L78.8656 28.433L80.6509 28.3996L81.3217 28.5038L82.0556 28.3996H82.6291L83.2981 28.4684L84.7984 28.3996L85.8498 28.7813L86.5206 29.3381L86.6793 29.9638L87.0309 30.5915L87.5719 31.1483L88.4014 31.4965L88.9749 31.4257L90.0911 31.53L92.0693 31.4611L92.6427 31.2526L92.7708 30.5206L92.5796 29.6509L92.356 29.0253L91.9413 28.433L91.7501 27.7385L91.4309 27.2151L91.2398 26.554L90.697 25.3026L90.4752 24.6415L90.156 24.0492L89.7088 22.7605L89.359 22.2056L89.1029 21.5091L88.8162 20.9168L88.5926 20.2203L88.3058 19.6989L88.1147 19.0024L87.763 18.3767L87.5088 17.7844L87.1896 17.1942L87.0309 16.533L86.3925 15.3151L86.2014 14.654L85.6261 13.3318L85.4675 12.775L84.9896 11.557L84.3512 10.2682L83.8409 8.94603L83.5542 8.42462L83.363 7.76351L82.7878 7.1024L81.704 6.78955L80.6833 7.13585L80.0774 7.76351L79.8863 8.3892L78.514 11.5216L78.1641 12.1473L76.3771 16.533L76.2184 17.1233L75.8667 17.751L75.3564 19.0024L74.8785 19.9075L74.6549 20.5686L74.2095 21.4737L74.0184 22.2056L73.7298 22.7605L73.508 23.457L72.6136 25.2672L71.6903 27.8073L71.3062 28.3641L71.0195 29.0607L70.6372 30.5206ZM80.4922 22.8667L79.8863 22.5873L79.7907 21.8908L81.0656 18.7249L81.3524 18.1681L81.7671 17.8198L82.1512 18.0992L82.566 19.4549L82.9158 20.0472L83.0438 20.604L83.363 21.3005L83.5848 21.9262L83.5217 22.5519L82.9789 22.8313L80.4922 22.8667Z" fill="white"/>
<path d="M100.713 30.4869L101.062 31.0771L101.668 31.4254L102.817 31.4962L103.455 31.4254L104.124 31.4608L105.017 31.4254L105.975 31.0771L106.294 30.3826V29.7903L106.229 29.0604L106.261 28.3992L106.229 27.7716L106.389 25.6486L106.294 24.9186L106.389 22.8998L106.261 22.2741L106.422 21.2648L107.538 19.1417L107.792 18.4806L108.144 17.8884L108.941 16.7413L112.609 10.1282L112.991 9.60682L113.215 8.98113L113.66 8.1449L113.565 7.31065L112.959 7.03125L112.322 7.13553L111.078 7.03125L110.407 7.13553H109.195L108.589 7.06667L107.792 7.41493L107.123 8.07604L106.58 9.25856L106.166 9.91967L105.975 10.5808L105.241 11.7298L104.763 12.9832L103.71 14.8622L103.264 14.9311L102.53 13.6778L102.244 13.0521L102.052 12.3555L100.457 9.29397L100.107 8.70173L99.8506 8.00717L99.1491 7.45035L98.3521 7.06667L94.1414 7.13553L93.4399 7.34606L93.3768 8.11146L93.696 8.94571L97.1403 14.8957L97.3945 15.4879L100.235 20.3597L100.489 21.2648L100.648 22.2741L100.617 25.0229L100.68 25.7194L100.713 26.3805L100.648 27.0062L100.617 28.3284L100.776 29.7549L100.713 30.4869Z" fill="white"/>
<path d="M122.91 31.7383L123.835 31.8446L124.856 31.8092L127.981 31.1481L129.64 30.1741L130.66 29.4087L131.553 28.295L132.191 27.1814L132.446 26.5537L132.637 25.8592L132.732 25.2315L132.765 23.075L132.669 22.3785L132.509 21.7174L131.872 20.4306L131.106 19.3504L130.565 18.8644L128.873 18.0282L126.259 17.3317L123.038 16.8811L121.698 16.3577L121.22 16.0803L120.71 15.5234L120.677 14.5829L120.773 13.6778L121.125 13.1919L121.666 12.7393L122.113 12.5307L122.686 12.391L124.728 12.3222L125.429 12.5996L125.907 13.0167L126.96 14.2347L127.948 14.5829L130.055 14.6538L130.628 14.5829L131.234 14.6538L131.84 14.2347L132.127 13.5736L131.872 12.2179L131.362 10.9645L130.947 10.4077L130.628 9.85089L130.213 9.32948L128.172 7.79673L126.417 7.13562L125.748 6.99789L125.175 6.92705L124.473 6.75391L122.686 6.78932L120.167 7.34615L119.594 7.58816L119.083 7.93643L118.573 8.14499L117.935 8.56409L117.487 9.01466L116.914 9.43376L116.562 10.024L116.149 10.4766L115.926 11.1042L115.607 11.6611L115.159 13.6778L115.192 16.0094L115.415 16.9854L115.83 18.2033L116.627 19.3504L117.52 20.2555L118.636 20.9855L120.454 21.6485L121.603 21.926L124.217 22.1345L124.791 22.2388L125.429 22.2742L126.578 22.7956L127.023 23.2128L127.184 24.1179L126.993 25.023L126.482 25.5109L125.972 25.8238L124.791 26.2055L123.898 26.2409L122.942 26.172L122.208 25.9635L121.731 25.7195L121.155 25.3358L120.677 24.8498L120.2 24.1533L119.561 23.8739L117.138 23.805L116.499 23.8739L115.861 23.8404L115.224 24.1533L115.001 24.8833L115.064 25.6486L115.192 26.2763L115.702 27.6674L116.499 28.7456L117.424 29.755L117.967 30.1387L120.263 31.2877L120.964 31.392L121.57 31.634L122.91 31.7383Z" fill="white"/>
<path d="M135.619 32.2261L135.938 32.2399L136.079 32.1986H136.207L136.347 32.1435L136.513 32.0313L136.614 31.9762L136.73 31.8641L136.845 31.7264L136.933 31.5867L137.049 31.1558L137.061 30.835L137.009 30.6678L136.984 30.5143L136.908 30.3333L136.818 30.1936L136.73 30.111L136.639 29.9713L136.5 29.8886L136.385 29.804L136.232 29.7765L136.066 29.7076L135.925 29.6938L135.631 29.7076L135.352 29.7627L135.186 29.8178L135.083 29.8749L134.829 30.111L134.625 30.3471L134.585 30.4868L134.522 30.6403L134.535 31.3073L134.573 31.4607L134.638 31.6142L134.713 31.7264L134.854 31.8503L134.917 31.9625L135.211 32.1435L135.327 32.1848L135.492 32.2261H135.619Z" fill="white"/>
<path d="M142.329 32.3112L143.095 32.3525L144.332 32.0731L145.034 31.7406L145.225 31.6009L145.456 31.4474L145.672 31.2801L145.838 31.0991L145.979 30.863L146.195 30.682L146.578 29.9579L146.693 29.708L146.756 29.4424L146.846 29.165L146.884 28.9013L146.808 28.6495L146.489 28.496L145.124 28.4822L144.843 28.6219L144.588 28.8856L144.486 29.1237L144.001 29.6943L143.568 29.9304L143.312 30.013L143.045 30.0425L142.329 30.0288L141.64 29.7494L141.398 29.6234L141.233 29.4286L140.76 28.7616L140.659 28.5236L140.506 27.9825L140.468 27.3273L140.481 26.8826L140.569 26.6307L140.582 26.3533L140.659 26.1034L140.876 25.6017L141.195 25.1708L141.615 24.8363L141.858 24.7241L142.304 24.5844L143.095 24.614L143.58 24.7104L143.847 24.8087L144.217 25.1413L144.41 25.3656L144.524 25.6017L144.754 25.8653L145.034 25.9913L146.323 26.0188L146.578 25.9913L146.781 25.8653L146.859 25.5741L146.756 25.2947L146.718 25.0449L146.514 24.5156L146.042 23.8053L145.378 23.152L145.099 22.9435L144.37 22.5814L143.873 22.428L143.236 22.3296H142.075L141.858 22.3591L141.615 22.4417L141.117 22.5539L140.876 22.6503L140.684 22.7762L140.454 22.8726L139.561 23.5003L139.408 23.7226L139.063 24.0709L138.91 24.307L138.324 25.5604L138.095 27.2997L138.145 27.7444V28.3012L138.273 28.8443L138.374 29.1099L138.414 29.3598L138.54 29.6097L138.63 29.8477L139.141 30.6545L139.599 31.1404L139.817 31.2939L140.008 31.4612L140.876 31.9767L141.13 32.0731L141.323 32.1301L141.59 32.2266L141.858 32.2541L142.087 32.3112H142.329Z" fill="white"/>
<path d="M152.14 32.3382L152.854 32.3245L153.619 32.2123L154.577 31.864L154.999 31.6142L155.19 31.4469L155.431 31.321L155.788 30.9885L155.954 30.7366L156.133 30.5418L156.694 29.6092L156.887 29.0799L156.988 28.5526L157 28.3007L157.065 28.0233L157.078 27.7301L157.128 27.3268L157.09 26.6303L157 26.0597L156.681 25.0168L156.439 24.5013L156.158 24.0842L155.801 23.6513L155.431 23.305L155.137 23.0807L154.755 22.8997L154.564 22.7482L153.581 22.4137L152.842 22.274L152.497 22.2603L151.145 22.4688L150.187 22.8584L149.996 23.0119L149.767 23.1378L149.333 23.4861L148.709 24.279L148.314 25.0168L148.121 25.5461L147.904 26.6165L147.867 27.7439L147.904 28.0371L147.968 28.287L147.995 28.5526L148.108 29.0799L148.696 30.347L148.849 30.5143L149.015 30.7366L149.206 30.9314L149.347 31.1124L149.767 31.4745L150.763 32.0313L151.132 32.171L151.414 32.1985L151.872 32.3107L152.14 32.3382ZM152.854 29.8748H152.153L151.872 29.8315L151.414 29.623L151.208 29.499L150.864 29.1921L150.698 28.9973L150.519 28.7336L150.456 28.5093L150.341 28.2594L150.24 27.7439V26.8959L150.303 26.644L150.341 26.3804L150.443 26.1305L150.519 25.8786L150.826 25.434L151.464 24.9598L151.63 24.8909L152.128 24.7512L152.485 24.7237L153.096 24.8083L153.327 24.8634L153.556 24.9755L153.951 25.2805L154.449 25.8511L154.602 26.3804L154.717 26.644L154.755 26.8959L154.73 27.7439L154.627 28.2594L154.539 28.5093L154.398 28.7612L154.322 28.9697L154.144 29.1921L153.531 29.6525L153.302 29.7213L153.109 29.8178L152.854 29.8748Z" fill="white"/>
<path d="M158.545 31.7681L158.659 32.018L158.965 32.1714L160.368 32.1439L160.75 32.018L160.891 31.7956L160.916 31.532L160.904 31.2388L160.866 30.9456L160.904 29.0666L160.853 28.2599L160.969 28.0651L161.16 28.1202L161.479 28.553L162.193 29.2909L162.359 29.527L162.779 29.9028H163.073L163.29 29.7356L164.361 28.553L164.527 28.315L164.705 28.1202L164.858 28.0926L164.961 28.2599L164.999 28.5393L164.961 28.8029L164.974 29.0528L164.961 29.3322L164.999 29.8477L164.961 31.7681L165.089 32.0593L165.369 32.1714L166.9 32.1852L167.143 32.018L167.282 31.7268L167.322 31.4474L167.269 29.7769L167.296 29.5132L167.269 28.9702L167.309 28.6908L167.296 28.4133L167.322 28.1202L167.296 27.8427L167.334 27.5929L167.296 23.6518L167.322 23.3606L167.296 23.1245L167.309 22.8313L167.168 22.5676L166.912 22.4004L166.53 22.5243L166.211 22.7191L165.919 23.1107L165.19 23.9312L165.077 24.1397L163.189 26.3257L162.907 26.4221L162.678 26.3395L162.512 26.1585L162.359 25.9224L162.155 25.7414L162.002 25.517L161.122 24.5293L160.815 24.1122L160.597 23.9036L160.433 23.7088L160.292 23.5003L160.114 23.3193L159.973 23.1245L159.692 22.8037L159.322 22.5106L158.953 22.4004L158.697 22.5539L158.558 22.8313L158.531 23.1245L158.57 29.2614L158.518 29.527L158.57 31.5024L158.545 31.7681Z" fill="white"/>
</g>
<defs>
<clipPath id="clip0_2372_3565">
<rect width="167.652" height="37.4943" fill="white" transform="translate(0 0.347168)"/>
</clipPath>
</defs>
</svg>
